<svg xmlns="http://www.w3.org/2000/svg" width="20.001" height="20" viewBox="0 0 20.001 20">
  <g id="재생_btn" data-name="재생 btn" transform="translate(-1431.088 -761.604)">
    <path id="패스_674" data-name="패스 674" d="M1441.088,761.6a10,10,0,1,0,10,10A10.012,10.012,0,0,0,1441.088,761.6Zm0,18.462a8.462,8.462,0,1,1,8.463-8.462A8.472,8.472,0,0,1,1441.088,780.065Z" transform="translate(0 0)" fill="#bc00ff"/>
    <path id="패스_675" data-name="패스 675" d="M1442.414,768.606a.769.769,0,0,0-1.278.578v7.985a.772.772,0,0,0,.453.7.782.782,0,0,0,.317.068.769.769,0,0,0,.509-.192l4.542-3.993a.769.769,0,0,0,0-1.155Z" transform="translate(-2.318 -1.571)" fill="#bc00ff"/>
  </g>
</svg>
