<svg xmlns="http://www.w3.org/2000/svg" xmlns:xlink="http://www.w3.org/1999/xlink" width="60" height="53.277" viewBox="0 0 60 53.277">
  <defs>
    <clipPath id="clip-path">
      <rect id="사각형_479" data-name="사각형 479" width="60" height="53.277" fill="#ed342f"/>
    </clipPath>
  </defs>
  <g id="정답" transform="translate(458 21)">
    <g id="그룹_169" data-name="그룹 169" transform="translate(-458 -21)" clip-path="url(#clip-path)">
      <path id="패스_1254" data-name="패스 1254" d="M69.215,100.8c-.189.134.092.323.106.389.236-.312-.172-.445-.106-.389" transform="translate(-32.873 -47.915)" fill="#ed342f"/>
      <path id="패스_1255" data-name="패스 1255" d="M73.668,94.449l.042.144.187-.623Z" transform="translate(-35.021 -44.673)" fill="#ed342f"/>
      <path id="패스_1256" data-name="패스 1256" d="M77.143,90.224c-.629-.171-.873.956-1.473,1.246l-.163-.021.1.525c.515-.58,1.038-1.484,1.537-1.75" transform="translate(-35.895 -42.884)" fill="#ed342f"/>
      <path id="패스_1257" data-name="패스 1257" d="M82.519,89.223c-.239-.073.164-.425-.368.265a.616.616,0,0,1,.1-.017,2.768,2.768,0,0,1,.272-.248" transform="translate(-39.054 -42.342)" fill="#ed342f"/>
      <path id="패스_1258" data-name="패스 1258" d="M82.271,89.83c-.26.277.306-.043,0,0" transform="translate(-39.077 -42.703)" fill="#ed342f"/>
      <path id="패스_1259" data-name="패스 1259" d="M84.343,87.287l-.215.493c.165.018.5-.279.451-.095.287-.441.121-.455-.236-.4" transform="translate(-39.994 -41.484)" fill="#ed342f"/>
      <path id="패스_1260" data-name="패스 1260" d="M84.507,86.119l-.123.241c.07.006.132-.03.123-.241" transform="translate(-40.115 -40.94)" fill="#ed342f"/>
      <path id="패스_1261" data-name="패스 1261" d="M83.882,87.064l.263-.513c-.115-.012-.25-.135-.133.223-.086-.149-.049.04-.131.29" transform="translate(-39.877 -41.132)" fill="#ed342f"/>
      <path id="패스_1262" data-name="패스 1262" d="M82.718,87.7c-.283.113-.6.309-.377-.179-.624.721-.246.908.377.179" transform="translate(-38.992 -41.606)" fill="#ed342f"/>
      <path id="패스_1263" data-name="패스 1263" d="M77.672,89.2l-.38.138-.1.357c.051-.177.619-.383.481-.5" transform="translate(-36.696 -42.405)" fill="#ed342f"/>
      <path id="패스_1264" data-name="패스 1264" d="M88.5,83.248c-.066-.1-.348-.095-.485-.172l-.154.364c.19-.082.492-.295.639-.193" transform="translate(-41.768 -39.494)" fill="#ed342f"/>
      <path id="패스_1265" data-name="패스 1265" d="M88.088,82.583l.229-.545c-.356.344-.346.477-.229.545" transform="translate(-41.841 -39)" fill="#ed342f"/>
      <path id="패스_1266" data-name="패스 1266" d="M83.593,85.05l-.33.944.447-1.071Z" transform="translate(-39.582 -40.371)" fill="#ed342f"/>
      <path id="패스_1267" data-name="패스 1267" d="M91.839,80.175l-.007.42.067-.7Z" transform="translate(-43.656 -37.983)" fill="#ed342f"/>
      <path id="패스_1268" data-name="패스 1268" d="M93.558,77.65c.019.327.506.009.449.29a2.413,2.413,0,0,0,.342-1.043,1.45,1.45,0,0,1-.791.754" transform="translate(-44.477 -36.556)" fill="#ed342f"/>
      <path id="패스_1269" data-name="패스 1269" d="M95.188,75.851a3.042,3.042,0,0,0-.122.548,1.561,1.561,0,0,0,.122-.548" transform="translate(-45.194 -36.059)" fill="#ed342f"/>
      <path id="패스_1270" data-name="패스 1270" d="M89.891,80.645a.622.622,0,0,0,.547-.095l-.4-.064-.151.159" transform="translate(-42.733 -38.262)" fill="#ed342f"/>
      <path id="패스_1271" data-name="패스 1271" d="M90.152,80.18l.013,0c.166-.169.281-.286.33-.337l-.343.336" transform="translate(-42.858 -37.957)" fill="#ed342f"/>
      <path id="패스_1272" data-name="패스 1272" d="M89.812,80.827l.038-.039c-.039-.007-.056-.005-.038.039" transform="translate(-42.693 -38.404)" fill="#ed342f"/>
      <path id="패스_1273" data-name="패스 1273" d="M85.992,82.887c.092-.36.4-.993-.251-.715.008.326.384.169.251.715" transform="translate(-40.761 -39.031)" fill="#ed342f"/>
      <path id="패스_1274" data-name="패스 1274" d="M88.469,80.706l-.454.377c.073.052.24.063.2.244Z" transform="translate(-41.842 -38.367)" fill="#ed342f"/>
      <path id="패스_1275" data-name="패스 1275" d="M88.994,80.163l-.114.285.167-.142Z" transform="translate(-42.253 -38.109)" fill="#ed342f"/>
      <path id="패스_1276" data-name="패스 1276" d="M93.3,76.255a1.949,1.949,0,0,1,.407-.771,5.443,5.443,0,0,0-.732.717c.049.1.1.339.325.054" transform="translate(-44.199 -35.884)" fill="#ed342f"/>
      <path id="패스_1277" data-name="패스 1277" d="M91.867,78.6c.007-.017.016-.039.023-.055-.045.007-.07.023-.023.055" transform="translate(-43.661 -37.338)" fill="#ed342f"/>
      <path id="패스_1278" data-name="패스 1278" d="M97.992,70.835l-.079,0,.039.045Z" transform="translate(-46.547 -33.674)" fill="#ed342f"/>
      <path id="패스_1279" data-name="패스 1279" d="M92.57,76.813a.588.588,0,0,0-.269.493,3.628,3.628,0,0,1,.354-.495c-.023-.047-.044-.071-.085,0" transform="translate(-43.879 -36.494)" fill="#ed342f"/>
      <path id="패스_1280" data-name="패스 1280" d="M95.738,74.372a3.455,3.455,0,0,0-.421.229c.165-.033.459-.137.421-.229" transform="translate(-45.313 -35.356)" fill="#ed342f"/>
      <path id="패스_1281" data-name="패스 1281" d="M92.162,78.535a.257.257,0,0,1-.014.038c.109-.015.076-.03.014-.038" transform="translate(-43.806 -37.335)" fill="#ed342f"/>
      <path id="패스_1282" data-name="패스 1282" d="M92.059,78.183a1.453,1.453,0,0,0,.067-.389,2.163,2.163,0,0,0-.193.392.408.408,0,0,1,.126,0" transform="translate(-43.704 -36.983)" fill="#ed342f"/>
      <path id="패스_1283" data-name="패스 1283" d="M95.319,66.567c.232.221.066.915-.54,1.162-.148.583.878.925,1.637.872-.1-.1-.2-.173.007-.748-.261.063-1.1.787-1.025.227.332-.705.465-.432.822-.632-.5.025.109-1.124-.454-1.318l-.221.655c-.078-.042-.054-.321-.226-.219" transform="translate(-45.05 -31.438)" fill="#ed342f"/>
      <path id="패스_1284" data-name="패스 1284" d="M96.46,71.748l-.12.212a2.46,2.46,0,0,1,.849-.4c.124-.415.081-.551.016-.636l-.377.461c-.186.232-.383.454-.383.454Z" transform="translate(-45.799 -33.718)" fill="#ed342f"/>
      <path id="패스_1285" data-name="패스 1285" d="M94.471,73.732c-.144-.361.1-.9-.4-.856-.417.561-.09.558-.242.975.66-.922-.063.371.611-.136a3.4,3.4,0,0,1-.325.529,4.84,4.84,0,0,1,.5-.354l-.033.006,0,0,0,0c-.065.011-.095.007-.04-.019,0-.006.007-.018.01-.023a.386.386,0,0,1-.066-.12c.26-.214.1.016.066.12a.234.234,0,0,0,.03.042h.006l.57-1.01a4.384,4.384,0,0,0-.674.846" transform="translate(-44.604 -34.644)" fill="#ed342f"/>
      <path id="패스_1286" data-name="패스 1286" d="M85.508,80.4a.1.1,0,0,1,.081.028c.019-.081.017-.12-.081-.028" transform="translate(-40.65 -38.197)" fill="#ed342f"/>
      <path id="패스_1287" data-name="패스 1287" d="M85.989,80.078a.463.463,0,0,1-.174.4c-.231.1-.119-.113-.208-.18-.043.177-.2.573.258.322l.02-.09c.392-.247,1.1-.386,1.08-.3a2.367,2.367,0,0,0-.977-.157" transform="translate(-40.668 -38.067)" fill="#ed342f"/>
      <path id="패스_1288" data-name="패스 1288" d="M90.551,76.489l.489-.815-.535.168.15.1c-.4.355-.162.411-.1.551" transform="translate(-42.988 -35.975)" fill="#ed342f"/>
      <path id="패스_1289" data-name="패스 1289" d="M98.446,70.475l.209.317-.07-.744Z" transform="translate(-46.801 -33.3)" fill="#ed342f"/>
      <path id="패스_1290" data-name="패스 1290" d="M99.788,68.757l.226.22.039-.378Z" transform="translate(-47.438 -32.611)" fill="#ed342f"/>
      <path id="패스_1291" data-name="패스 1291" d="M39.006,20.848l-.186.209a1.141,1.141,0,0,0,.186-.209" transform="translate(-18.455 -9.911)" fill="#ed342f"/>
      <path id="패스_1292" data-name="패스 1292" d="M42.349,18.976l-.03-.157c-.039.116-.042.188.03.157" transform="translate(-20.105 -8.946)" fill="#ed342f"/>
      <path id="패스_1293" data-name="패스 1293" d="M106.963,11.259c0-.271.034-.59.006-.8s-.084-.316-.206-.189l-.186.315a1.162,1.162,0,0,1,.386.671" transform="translate(-50.666 -4.858)" fill="#ed342f"/>
      <path id="패스_1294" data-name="패스 1294" d="M69.357,4.79l.135.076.193-.378-.328.3" transform="translate(-32.972 -2.134)" fill="#ed342f"/>
      <path id="패스_1295" data-name="패스 1295" d="M68.939,7.714l-.542-.1a1.925,1.925,0,0,0,.542.1" transform="translate(-32.515 -3.618)" fill="#ed342f"/>
      <path id="패스_1296" data-name="패스 1296" d="M23.267,32.54V33c.348-.3.083-.3,0-.457" transform="translate(-11.061 -15.469)" fill="#ed342f"/>
      <path id="패스_1297" data-name="패스 1297" d="M110.8,46.2a2.779,2.779,0,0,0,.454-.825c-.3.383-.7.63-.454.825" transform="translate(-52.639 -21.571)" fill="#ed342f"/>
      <path id="패스_1298" data-name="패스 1298" d="M36.973,14.111c-.119.137-.148.232-.108.3.125-.136.18-.241.108-.3" transform="translate(-17.517 -6.708)" fill="#ed342f"/>
      <path id="패스_1299" data-name="패스 1299" d="M111.985,43.391c-.048.056-.08.114-.124.172a3.009,3.009,0,0,1-.127.868,1.065,1.065,0,0,0,.251-1.04" transform="translate(-53.117 -20.628)" fill="#ed342f"/>
      <path id="패스_1300" data-name="패스 1300" d="M29.963,80.118a.841.841,0,0,1,.074.051c.014-.045-.021-.052-.074-.051" transform="translate(-14.244 -38.087)" fill="#ed342f"/>
      <path id="패스_1301" data-name="패스 1301" d="M51.084,85.462a3.518,3.518,0,0,1-.463.11,1.137,1.137,0,0,0,.463-.11" transform="translate(-24.065 -40.628)" fill="#ed342f"/>
      <path id="패스_1302" data-name="패스 1302" d="M105.217,60.976c-.114.244.012.055,0,0" transform="translate(-49.996 -28.987)" fill="#ed342f"/>
      <path id="패스_1303" data-name="패스 1303" d="M101.722,61.608a.212.212,0,0,0-.087-.175.268.268,0,0,1,.087.175" transform="translate(-48.316 -29.205)" fill="#ed342f"/>
      <path id="패스_1304" data-name="패스 1304" d="M109,37.723c0-.008,0-.013,0-.022-.075.068-.061.056,0,.022" transform="translate(-51.796 -17.923)" fill="#ed342f"/>
      <path id="패스_1305" data-name="패스 1305" d="M104.622,61.271a1.72,1.72,0,0,0,.259-.246,1.875,1.875,0,0,0-.259.246" transform="translate(-49.736 -29.011)" fill="#ed342f"/>
      <path id="패스_1306" data-name="패스 1306" d="M104.807,61.559l-.145.187c.032.059.078.05.145-.187" transform="translate(-49.755 -29.265)" fill="#ed342f"/>
      <path id="패스_1307" data-name="패스 1307" d="M105.363,60.341a2.036,2.036,0,0,1-.248.359c.047-.034.074-.044.077-.026l.171-.333" transform="translate(-49.971 -28.686)" fill="#ed342f"/>
      <path id="패스_1308" data-name="패스 1308" d="M5.5,58.442a.536.536,0,0,1-.033.049c.134.241.115.137.033-.049" transform="translate(-2.6 -27.783)" fill="#ed342f"/>
      <path id="패스_1309" data-name="패스 1309" d="M93.514,8.745a.216.216,0,0,0,.031-.006l-.026-.023Z" transform="translate(-44.456 -4.144)" fill="#ed342f"/>
      <path id="패스_1310" data-name="패스 1310" d="M91.918,7.777c.464-.271.64-.144.841.032,0,0,.038-.25.077-.5s.066-.5.066-.5-.26.238-.506.48-.478.491-.478.491" transform="translate(-43.697 -3.236)" fill="#ed342f"/>
      <path id="패스_1311" data-name="패스 1311" d="M16.691,13.419l.689-.084c-.353.833-.9.978-.173,1.024-.259-.469.23-.822.721-1.173s1-.68.758-1.159L19.154,12c-.106.052-.09.116-.195.169.948.026.116-.967,1.093-1.365.353-.115.652-.1.5.131l.577-.621c.216-.1.254.094.041.19l.517-.335c.258-.17.521-.33.521-.33l.007.032a4.825,4.825,0,0,1,.433-.831c.349-.01-.088.173.045.254l.489-.547c.372.118-.008.62-.443.8,1.054.659.374-.515,1.885-.557l-.514.4c.639.363.986-.057,1.793-.024-.234-.112-1.708-.227-1.164-.791a1.012,1.012,0,0,0,.754-.467c.165.343.477.1.91-.125l.178.473c.414-.348.272-.568.463-.9a.942.942,0,0,1,1.077.378c.886-.289-.836-.325.144-.843a3.964,3.964,0,0,0,1.984-1.125c.572-.025.018.321.251.388l.316-.537c.115-.03.121.1.124.164.331-.282-.139-.484.423-.828-.008-.287.37-.217.819-.155s.961.094,1.249-.325c.227.078,0,.323.112.492a7.428,7.428,0,0,0,1.522-1.316l.409.06.409.078c-.633-.245-.047-.835.5-1.336a4.941,4.941,0,0,0-.576-.3l.955-.493c.14.054.07.246-.051.489.06-.057.116-.111.159-.16.4.115.264.428.068.761l-.421-.223A1.34,1.34,0,0,0,36.3,3.745a.762.762,0,0,1,.29-.2c-.045.1-.07.177-.03.219s.122-.087.254-.249l.335.5.009-.23s.335.024.667.056l.661.062c.4-.368.78-.76,1.246-1.125a5.268,5.268,0,0,1,.78-.515,4.6,4.6,0,0,1,1-.333c-.351.434-.041.676-.036,1.164-.213-.246-.5-.174-.813-.049a2.578,2.578,0,0,1-1.049.336c.4.007.337.248.249.341L40.5,3.4c.321-.153.648-.282.648-.282,0,.4.3.282.655.425-.149-.385.092-.534.444-.615a5.663,5.663,0,0,0,1.079-.168c.026.264-.109.534-.763.464.363.3.59.071.833-.17s.493-.494.835-.2c-.161-.008-.247-.056-.317.072.391-.2,1.3.063,1.056.274l-.159-.008c.131.023.279.044.438.063l.5.09c.344.06.718.085,1.06.119.672.095,1.289.061,1.475-.225a5.98,5.98,0,0,1-.489.837L47.9,4c.069-.047.163-.107.276-.172.229-.135.545-.311.879-.48s.687-.336.954-.445l.445-.158a4.641,4.641,0,0,0-.5,1.126c-.184.422-.43.756-.863.72a1.311,1.311,0,0,0,.91.463c-.093-.143.044-.923.276-.856a2.938,2.938,0,0,0,.244.68A4.552,4.552,0,0,1,50.8,5.6c-.123-.243.616-.818.945-.545-.134.069-.527.716-.7.709l.206-.022a3.288,3.288,0,0,1,.452-.027c.319,0,.657.017.657.017-.293-.059-.537.525-.564.844.025-.1.169.047.337.225s.312.439.432.5l-.1-.45c.551.922,1.705.055,2.287,1.134-.237-.036-1.134.3-.942.828a6.042,6.042,0,0,1,1.533.114,3.055,3.055,0,0,1,1.733.89l-.175.3.551.728c-.413-.154-1.062-.47-1.718-.763-.693-.282-1.359-.537-1.752-.73-.014.467-.227.241.046.782-.134.29-.471-.143-.554-.293l.212.654c.052.163.11.321.144.446l.045.218c.473-.25.841.865,1.247.686l-.51-.675-.347-.45-.18-.184a1.148,1.148,0,0,1,1.077.184,2.126,2.126,0,0,1,.9,1.241c-.121.321-.967.062-1.131.141a1.345,1.345,0,0,1,.5,1l-.384-.366c-.056.6.938.777.547,1.573.007.251-.546.8-.237.8a4.416,4.416,0,0,1,2.863-.619,6.984,6.984,0,0,1-.692,1.8c-.233.231-.51.08-.8-.065s-.57-.289-.756-.1c.144,0,.351.214.4.307-.116.267-.449-.082-.37.472.538.078-.015,1.147.46.255.173.558-.094.593-.1,1.245.178-.1.466.061.725.328a1.806,1.806,0,0,1,.518.947c-.132-.048-.323.065-.41.12-.046.295-.1.554-.157.793l-.219.667c-.072.213-.143.424-.208.647s-.15.457-.215.724c-.151.07-.426.541-.6.265a.976.976,0,0,1,.113.688c-.632.491.145-.733-.533-.41.289.121.165.937.211,1.459.5.007.422-1.043.351-1.55.652.162,1.094,1.175.995,2.426-.171.959-.544.243-.512.432a2.315,2.315,0,0,0-.158,1.682,1.26,1.26,0,0,1-.4,1.362c-.635.351-.77-.343-1.1-.356.18-.752.747-.941.925-1.433l-.431.507a1.4,1.4,0,0,1,.282-.993,5.094,5.094,0,0,0-.941,1.573,11.471,11.471,0,0,1-.612,1.139,5.024,5.024,0,0,1-.691.946c.006.275-.072.705.173.621l.161-.4c.5-.176.007.933.418.539a9.014,9.014,0,0,1-.145,1,2.117,2.117,0,0,1-.55.977l-.489-.128c.128.061.527-.3.523-.573,0,.407-1.207.71-.892,1.358l.6-.294c-.123.613-.095,1.521-.65,2.031.582,0,.059-.162.811-.283-.826-.012,1.079-1.557.063-1.35.837-.1.726-.638,1.574-.952-.151-.066-.387.061,0-.439a.741.741,0,0,1-.052-.191l.031-.03-.034.02c-.006-.036-.01-.04-.012.007a.691.691,0,0,1-.367.153c-.161-.456.342-1.3.335-1.679.237-.288.089.223.331.127l-.017-.574c.334.125.978-.6.754.272l.382-.695a2.3,2.3,0,0,0,.765-1.313c.227-.315.012-1.035.142-.621l.141-.621.1-.425.036-.2.087.021a9.479,9.479,0,0,0,.44-1.876,5.066,5.066,0,0,1,.27-.969,3.345,3.345,0,0,1,.511-.957,4.972,4.972,0,0,1,.211-1.558l.326-.087c0-.548.506-1.617.224-1.882.432-.263.507-.955.495-1.688-.067-.738-.175-1.511-.17-2.01l-.4-.005a6.014,6.014,0,0,0-.156-1,10.255,10.255,0,0,0-.372-1.085l-.339.112a2.955,2.955,0,0,1-.253-1.271,5.13,5.13,0,0,0-.236-1.6c.153.031.208.315.192.529a2.588,2.588,0,0,0-.573-1.993,3.2,3.2,0,0,1-.922-1.806.929.929,0,0,1-.392-.655.179.179,0,0,0,.056.058.927.927,0,0,0-.063-.113c-.021-.15-.037-.311-.071-.475a1.649,1.649,0,0,0,.034.417,4.17,4.17,0,0,0-.63-.745l.21-.344-.062-.061c-.117-.371-.324-.118-.434.2a1.831,1.831,0,0,0-.476-.228c.283-.612-.715-.6-.547-1.3-.2.025-.575-.248-.967-.474a1.066,1.066,0,0,0-1.117-.133c.042-.077-.015-.17.139-.065a1.474,1.474,0,0,0-.932-.612l.106-.492-.539.073-.52.084c-.305-.5-.444-.767.185-.849a9.342,9.342,0,0,1-1.179-.088,2.542,2.542,0,0,0-1.015.03l.145-.283c-.367-.091-1.038.154-1.184-.153A1.752,1.752,0,0,0,46.58.908,8.044,8.044,0,0,0,45.011.624C44.426.564,43.8.5,43.194.47c-.609-.049-1.2-.123-1.73-.215.456.891-1-.352-1.027.363C40.3.409,40,.326,40.315.1c-1.026.349-1.651-.172-2.274.559-.155-.195.172-.354.046-.462-.077.06-.3.244-.432.135s.123-.206.275-.328c-1.075.225-1.052.9-1.006,1.53-.581-.185-.838-.076-1.122.408-.225-.159-.581-.3.046-.516a10.494,10.494,0,0,0-1.265.2c-.508.129-.958.311-.909.558-.145-.092-.507.1-.583.182a12.474,12.474,0,0,0-1.634.483l.239.011c-.116.667-.592.336-1.181.622l0-.065c-1.553.085-.534.4-2.08.462l.211.323c.17.8-1.384.024-2.05.655l.366.079c-.313.431-1.634-.508-2.108-.395-.123-.021.1-.17.211-.279-1.325.08.057.518-.729,1-.267-.171-.087-.706-.674-.492-.376-.053-1.242,1.553-2.213,1.494.26.1.515.195.209.528a3.875,3.875,0,0,1-1.192.306c-.436.1-.835.263-.935.688a.22.22,0,0,1-.181-.083c-.359.379-1.266,1.048-1.345,1.5-1.083-.9-2.285,2.151-2.913,1.142l-.625.446-.616.461-.036-.124A1.848,1.848,0,0,0,12.732,12.5c-.231.068-.164-.121-.186-.183a4.146,4.146,0,0,0-1.254.8,4.037,4.037,0,0,0-.7,1.225l-.346-.22c-.055.192-.554.407-1.133.76A4.036,4.036,0,0,0,7.536,16.4a.273.273,0,0,1-.014-.236A7.93,7.93,0,0,1,5.6,18c-.66.56-1.135,1.131-.733,1.795l-.172.534c-.088.263-.156.536-.156.536.865-1.057.389.513.9.189-.218.475-1.11.893-.812.312l.116-.046c-.5-.621-1.128,1.287-1.531,1.01a40.658,40.658,0,0,0-1.874,3.648,13.415,13.415,0,0,0-1.1,3.953l.6-.251s-.031.228-.063.456a2.972,2.972,0,0,0-.033.316c-.006.087-.009.145-.009.145-.141.237-.463.319-.413-.364-.34.348.231,1.154.368,1.159-.087.656-.259.546-.411.3S.007,31.076,0,31.286l.067.571.061-.132C.389,32.175.615,32.19.7,33c-.045.529-.319.322-.3.53-.04.005-.044.08.052.318,0,0,.055.306.111.612l.162.6.143-.3.146-.294c.372.447.313,1.074.638.4-.28.5.088,1.582.635,2.509a11.425,11.425,0,0,0,.859,1.209,4.161,4.161,0,0,1,.493.712,6.941,6.941,0,0,1,1.874,1.392c-.112-.206.121-.671.651-.181-.43.332-.234.634.087.971.334.314.777.662.841,1.151-.209-.7,1.924.948,1.524-.1.5.345-.152.366.144.789a7.227,7.227,0,0,1,2.192.992c.4.2.809.429,1.244.595a6.375,6.375,0,0,0,1.354.377c.057-.129-.2-.4.233-.519l.407.435c.207.218.424.435.424.435.38-.016.45-.744,1.042-.179-.08-.129-.194-.321.049-.332a13.249,13.249,0,0,0,5.341.231,18.716,18.716,0,0,1,5.359-.072c-.514-.187-.205-.265.151-.334-.243-.025-.052-.338-.13-.515l1.525.253c.162-.561,1.522-.333,1.569-.855l-.43.18c.476-.695-1.09-1.114-1.144-1.874-.54.79-1.9-.646-2.815.467-.262-.113.164-.274.01-.425-.22.367-.543.477-1.172.421l.058-.089a14.858,14.858,0,0,1-4.367-.067l.152.371a1.481,1.481,0,0,1-.688-.25c-.461.572,1.144.014.737.644-.286-.384-1.007-.346-1.7-.392-.694-.022-1.357-.115-1.494-.557-.606-.052.139.446-.472.389l-.133-.254-.188.278a.647.647,0,0,1-.531-.615,1.246,1.246,0,0,0,.378-.022c-.464-.317-1.4-.161-1.558-.274l.524.252c-.2-.014-.41-.036-.622-.063-.2-.044-.411-.094-.621-.147a10.931,10.931,0,0,1-1.236-.4c-.411-.151-.816-.356-1.234-.5a7.722,7.722,0,0,0-1.292-.378l.029.214c-1.245-.331-.785-.636-1.977-1.253L7.8,39.47a1.545,1.545,0,0,1-.937-.406c.2.024.135-.153.087-.319s-.067-.337.162-.282c-.58-.29-.749-.35-.9-.343a2.092,2.092,0,0,1-.822-.02l.077-.345a1.114,1.114,0,0,1-1.005-.465c.539.28.1-.6.732-.325a2.365,2.365,0,0,0-.357-.818c-.156-.2-.332-.351-.472-.5a1.336,1.336,0,0,1-.338-.441.649.649,0,0,1,.143-.569c-.491-.125-.487.172-.39.493s.328.609.161.5c-.048.191-.241.148-.446-.008a1.3,1.3,0,0,1-.432-.664c-.089-.215.1-.5.265-.826a1.807,1.807,0,0,0,.2-1.222c.019.1.08.1.1.2a.925.925,0,0,0-.118-.577.648.648,0,0,1,.007-.66c-.5-.248-.011-.626-.619-.7a1.6,1.6,0,0,0,.02.159l.067.347.065.344a1.225,1.225,0,0,0,.034.154,10.035,10.035,0,0,0-.509-.878,1.378,1.378,0,0,1-.013-1.223,2.088,2.088,0,0,1,.34.592c.181-.266-.075-.551.137-.823.31.079.3.383.294.75a1.539,1.539,0,0,0,.248,1.079c.227-.273-.444-1.115.218-.8a.555.555,0,0,1-.3-.788,1.165,1.165,0,0,0-.05-1.037l.359.116a1.069,1.069,0,0,1-.106-.6l.19.241c.093.119.2.236.2.236-.285-.667.605-1,.56-1.591-.332,1.129-.51.123-.917.538-.022-.8.276-.945.631-1.069a1.337,1.337,0,0,0,.975-1.04c-.038.223-.54.688-.56.3a1.976,1.976,0,0,1,.759-.685c.417-1.028-.421-.013-.418-.54.571-.143.083-.579.2-1.1l.333.182c.865-1-.516-.708.369-1.573l.082.354.093.353.1-.3.114-.294.291.342a1.719,1.719,0,0,1,.773-1.315c-.3-.032-.515-.486-.15-.96.428-.178.145.4.619-.29.067.3.177.642-.322.709.075.1.076.29.15.392.468-.173.7-.8.9-1.024A.75.75,0,0,1,8.4,20.6l.186-.624c.091-.317.2-.628.2-.628.235-.046.218.144.2.327.133-.206.118-.447.338-.736.162.279.409.482.181.945l.254-.531c.128-.266.27-.525.27-.525.151.039.667-.154.645.032a2.071,2.071,0,0,0,.654-.905,2.054,2.054,0,0,1,.85-.957.516.516,0,0,1,.136-.323c.656-.465,1.44-.592,1.95-1.5l.763.128c.53-.542-1-.131-.112-1.037.635-.652.545.2.889.147.2-.482.528-1.387,1.466-1.454-.17.236-.393.283-.583.456M24.72,8.586c-.129.152-.345.531-.563.389-.007-.481.231-.366.563-.389M37.9,3.1c-.111.147-.327.122-.588.022A.963.963,0,0,1,37.9,3.1M56.322,29.242a.1.1,0,0,0-.008-.027c.321-.333.2-.217.008.027m-.548.74c.005.1.055.123.12.113-.058-.1.036-.28.159-.477-.115.015-.229.088-.279.364M.561,33.611l.057-.206c.2.4.076.3-.057.206" transform="translate(0 0)" fill="#ed342f"/>
      <path id="패스_1312" data-name="패스 1312" d="M69.294,7.322a.425.425,0,0,1-.121-.185c-.056.078-.04.15.121.185" transform="translate(-32.871 -3.393)" fill="#ed342f"/>
      <path id="패스_1313" data-name="패스 1313" d="M23.247,32.38c-.009,0-.015.01-.024.014a.188.188,0,0,0,.023.07Z" transform="translate(-11.04 -15.393)" fill="#ed342f"/>
      <path id="패스_1314" data-name="패스 1314" d="M106.392,31.069a.749.749,0,0,1,.171-.329c-.1,0-.157.078-.171.329" transform="translate(-50.578 -14.614)" fill="#ed342f"/>
      <path id="패스_1315" data-name="패스 1315" d="M102.63,65.162l.119-.268.113-.272a.813.813,0,0,1-.388.369c.081.038.25.016.155.17" transform="translate(-48.716 -30.721)" fill="#ed342f"/>
      <path id="패스_1316" data-name="패스 1316" d="M93.562,70.518c-.014.092-.1.137-.115.229l.152.092c.207-.278.244-.553-.036-.321" transform="translate(-44.424 -33.482)" fill="#ed342f"/>
      <path id="패스_1317" data-name="패스 1317" d="M99.691,65.13c-.291-.141-.395.213-.569.572a.35.35,0,0,1,.04-.057c.3.352.417-.085.528-.516" transform="translate(-47.122 -30.947)" fill="#ed342f"/>
      <path id="패스_1318" data-name="패스 1318" d="M98.852,66.4a1.445,1.445,0,0,1-.205.3c.12.141.116-.1.205-.3" transform="translate(-46.896 -31.567)" fill="#ed342f"/>
      <path id="패스_1319" data-name="패스 1319" d="M105.624,58.973c-.162.131.3.3.132.336.262.389.173-1.376-.132-.336" transform="translate(-50.196 -27.877)" fill="#ed342f"/>
      <path id="패스_1320" data-name="패스 1320" d="M98.209,64.308l.4.105-.143-.358Z" transform="translate(-46.687 -30.451)" fill="#ed342f"/>
      <path id="패스_1321" data-name="패스 1321" d="M101.435,59.9l-.2.242-.209.237c.061.026.053.114.027.211.219-.315.493-.644.385-.69" transform="translate(-48.025 -28.474)" fill="#ed342f"/>
      <path id="패스_1322" data-name="패스 1322" d="M100.883,61.212a1.024,1.024,0,0,0-.21.46,2.311,2.311,0,0,0,.21-.46" transform="translate(-47.859 -29.1)" fill="#ed342f"/>
      <path id="패스_1323" data-name="패스 1323" d="M98.918,62.658l.17-.106.259-.353-.21.232-.219.227" transform="translate(-47.025 -29.568)" fill="#ed342f"/>
      <path id="패스_1324" data-name="패스 1324" d="M107.25,47.743l.063-.34a3.351,3.351,0,0,0,.051-.342c-.112-.109-.233.046-.27.3.034.183,0,.438.156.383" transform="translate(-50.912 -22.356)" fill="#ed342f"/>
      <path id="패스_1325" data-name="패스 1325" d="M104.019,50.926c.144-.133.229-.11.388-.153l-.443-.207Z" transform="translate(-49.424 -24.039)" fill="#ed342f"/>
      <path id="패스_1326" data-name="패스 1326" d="M104.927,47.271c-.1-.11-.046-1.014-.3-.231.1.1-.012.76.3.231" transform="translate(-49.74 -22.212)" fill="#ed342f"/>
      <path id="패스_1327" data-name="패스 1327" d="M108.763,29.262l.023.168.8-.1Z" transform="translate(-51.705 -13.911)" fill="#ed342f"/>
      <path id="패스_1328" data-name="패스 1328" d="M100.252,15.381c.21.663.5-.145.624.513.247.041-.1-.545.122-.491-.375-.266-.444-.468-.747-.022" transform="translate(-47.659 -7.187)" fill="#ed342f"/>
      <path id="패스_1329" data-name="패스 1329" d="M101.675,15.661a1.62,1.62,0,0,0,.217.122.658.658,0,0,0-.217-.122" transform="translate(-48.335 -7.445)" fill="#ed342f"/>
      <path id="패스_1330" data-name="패스 1330" d="M55.253,85.464l.546.06-.383-.2Z" transform="translate(-26.267 -40.564)" fill="#ed342f"/>
      <path id="패스_1331" data-name="패스 1331" d="M56.9,84.058l.224.476.211-.516c-.11.046-.325.136-.435.04" transform="translate(-27.048 -39.941)" fill="#ed342f"/>
      <path id="패스_1332" data-name="패스 1332" d="M49.918,16.852l-.017-.127c-.125-.089-.235-.05-.456.028Z" transform="translate(-23.506 -7.926)" fill="#ed342f"/>
      <path id="패스_1333" data-name="패스 1333" d="M38.326,21.972l.105-.05-.42-.289Z" transform="translate(-18.07 -10.284)" fill="#ed342f"/>
      <path id="패스_1334" data-name="패스 1334" d="M30.055,28.56c.2-.113.359-.349.559-.464-.36.35-.941.027-.559.464" transform="translate(-14.228 -13.357)" fill="#ed342f"/>
    </g>
  </g>
</svg>
