<svg id="찜하트" xmlns="http://www.w3.org/2000/svg" xmlns:xlink="http://www.w3.org/1999/xlink" width="18" height="15.627" viewBox="0 0 18 15.627">
  <defs>
    <clipPath id="clip-path">
      <rect id="사각형_112" data-name="사각형 112" width="18" height="15.627" fill="none" stroke="#fff" stroke-width="1"/>
    </clipPath>
  </defs>
  <g id="찜하트-2" data-name="찜하트" clip-path="url(#clip-path)">
    <path id="패스_661" data-name="패스 661" d="M16.132,4.348A3.889,3.889,0,0,0,12.044.5,4.085,4.085,0,0,0,8.316,2.915,4.083,4.083,0,0,0,4.588.5,3.89,3.89,0,0,0,.5,4.348,5.74,5.74,0,0,0,1.522,7.233c2.117,3.1,6.277,6.733,6.793,6.733.594,0,4.653-3.652,6.674-6.733A8.417,8.417,0,0,0,16.132,4.348Z" transform="translate(0.684 0.58)" fill="none" stroke="#000" stroke-linecap="round" stroke-linejoin="round" stroke-width="1"/>
  </g>
</svg>
