<svg xmlns="http://www.w3.org/2000/svg" xmlns:xlink="http://www.w3.org/1999/xlink" width="50" height="50" viewBox="0 0 50 50">
  <defs>
    <clipPath id="clip-path">
      <rect id="사각형_818" data-name="사각형 818" width="18" height="24" transform="translate(68 137)" fill="#c8c8c8"/>
    </clipPath>
  </defs>
  <g id="프로필" transform="translate(-360 -3925)">
    <rect id="사각형_810" data-name="사각형 810" width="50" height="50" rx="25" transform="translate(360 3925)" fill="#efefef"/>
    <g id="마스크_그룹_12" data-name="마스크 그룹 12" transform="translate(308 3801)" clip-path="url(#clip-path)">
      <g id="Group" transform="translate(68 137)">
        <path id="패스_1241" data-name="패스 1241" d="M10,12A6,6,0,1,0,4,6,6,6,0,0,0,10,12Z" transform="translate(-1)" fill="#c8c8c8"/>
        <path id="패스_1242" data-name="패스 1242" d="M9,18.667a9.01,9.01,0,0,0-9,9,1,1,0,0,0,1,1H17a1,1,0,0,0,1-1A9.01,9.01,0,0,0,9,18.667Z" transform="translate(0 -4.667)" fill="#c8c8c8"/>
      </g>
    </g>
  </g>
</svg>
