<svg id="틀림" xmlns="http://www.w3.org/2000/svg" xmlns:xlink="http://www.w3.org/1999/xlink" width="60" height="57.921" viewBox="0 0 60 57.921">
  <defs>
    <clipPath id="clip-path">
      <rect id="사각형_480" data-name="사각형 480" width="60" height="57.921" fill="#ed342f"/>
    </clipPath>
  </defs>
  <g id="그룹_170" data-name="그룹 170" transform="translate(0 0)" clip-path="url(#clip-path)">
    <path id="패스_1335" data-name="패스 1335" d="M.027,96.435c-.107.064.129.255.152.307.1-.188-.209-.36-.152-.307" transform="translate(0 -38.821)" fill="#ed342f"/>
    <path id="패스_1336" data-name="패스 1336" d="M1.738,93.107l.057.114.013-.422Z" transform="translate(-0.7 -37.361)" fill="#ed342f"/>
    <path id="패스_1337" data-name="패스 1337" d="M3.423,91.145c-.478-.254-.443.525-.812.619l-.119-.048.169.405c.254-.326.456-.886.763-.976" transform="translate(-1.003 -36.675)" fill="#ed342f"/>
    <path id="패스_1338" data-name="패스 1338" d="M6.4,91.31c-.181-.1.042-.274-.214.113a.387.387,0,0,1,.066.008A.81.81,0,0,1,6.4,91.31" transform="translate(-2.489 -36.71)" fill="#ed342f"/>
    <path id="패스_1339" data-name="패스 1339" d="M6.269,91.6c-.136.145.209.035,0,0" transform="translate(-2.511 -36.878)" fill="#ed342f"/>
    <path id="패스_1340" data-name="패스 1340" d="M7.236,90.416l-.07.308c.12.049.308-.09.3.032.13-.254.01-.3-.233-.34" transform="translate(-2.885 -36.402)" fill="#ed342f"/>
    <path id="패스_1341" data-name="패스 1341" d="M7.13,89.676l-.048.147c.051.02.088.009.048-.147" transform="translate(-2.851 -36.104)" fill="#ed342f"/>
    <path id="패스_1342" data-name="패스 1342" d="M6.9,90.2l.1-.311c-.084-.035-.2-.154-.057.131-.086-.127-.028.019-.045.18" transform="translate(-2.767 -36.166)" fill="#ed342f"/>
    <path id="패스_1343" data-name="패스 1343" d="M6.331,90.39c-.183.018-.369.095-.3-.213-.318.391-.02.6.3.213" transform="translate(-2.374 -36.306)" fill="#ed342f"/>
    <path id="패스_1344" data-name="패스 1344" d="M3.4,90.419l-.245.024-.007.24c0-.119.37-.154.252-.264" transform="translate(-1.266 -36.403)" fill="#ed342f"/>
    <path id="패스_1345" data-name="패스 1345" d="M9.291,88.727c-.062-.091-.261-.153-.37-.242l-.056.223c.123-.013.308-.09.427.019" transform="translate(-3.569 -35.624)" fill="#ed342f"/>
    <path id="패스_1346" data-name="패스 1346" d="M8.91,88.259l.084-.333c-.2.16-.178.256-.084.333" transform="translate(-3.559 -35.399)" fill="#ed342f"/>
    <path id="패스_1347" data-name="패스 1347" d="M6.519,88.881l-.08.61.143-.676Z" transform="translate(-2.592 -35.757)" fill="#ed342f"/>
    <path id="패스_1348" data-name="패스 1348" d="M10.945,87.529l.051.3-.045-.477Z" transform="translate(-4.407 -35.167)" fill="#ed342f"/>
    <path id="패스_1349" data-name="패스 1349" d="M11.79,86.561c.054.235.362.146.355.327a1.111,1.111,0,0,0,.125-.631c-.058.176-.2.277-.48.3" transform="translate(-4.747 -34.727)" fill="#ed342f"/>
    <path id="패스_1350" data-name="패스 1350" d="M12.622,85.677a1.549,1.549,0,0,0-.028.346.79.79,0,0,0,.028-.346" transform="translate(-5.07 -34.494)" fill="#ed342f"/>
    <path id="패스_1351" data-name="패스 1351" d="M9.763,87.384a.463.463,0,0,0,.378.073L9.85,87.31l-.087.074" transform="translate(-3.931 -35.151)" fill="#ed342f"/>
    <path id="패스_1352" data-name="패스 1352" d="M9.891,87.2l.01,0,.191-.155-.2.15" transform="translate(-3.982 -35.047)" fill="#ed342f"/>
    <path id="패스_1353" data-name="패스 1353" d="M9.72,87.445l.022-.018c-.029-.015-.041-.017-.022.018" transform="translate(-3.91 -35.194)" fill="#ed342f"/>
    <path id="패스_1354" data-name="패스 1354" d="M7.622,88.015c.008-.241.142-.615-.286-.575.053.237.3.212.286.575" transform="translate(-2.954 -35.202)" fill="#ed342f"/>
    <path id="패스_1355" data-name="패스 1355" d="M8.934,87.154l-.272.158c.059.054.18.1.176.223Z" transform="translate(-3.487 -35.089)" fill="#ed342f"/>
    <path id="패스_1356" data-name="패스 1356" d="M9.161,86.864l-.044.173.1-.058Z" transform="translate(-3.671 -34.972)" fill="#ed342f"/>
    <path id="패스_1357" data-name="패스 1357" d="M11.51,85.639a.664.664,0,0,1,.21-.422,1.637,1.637,0,0,0-.449.292c.047.087.109.266.24.13" transform="translate(-4.537 -34.309)" fill="#ed342f"/>
    <path id="패스_1358" data-name="패스 1358" d="M10.761,86.537l.01-.033c-.03-.006-.047,0-.01.033" transform="translate(-4.324 -34.826)" fill="#ed342f"/>
    <path id="패스_1359" data-name="패스 1359" d="M13.96,83.371l-.057-.023.031.042Z" transform="translate(-5.597 -33.556)" fill="#ed342f"/>
    <path id="패스_1360" data-name="패스 1360" d="M11.076,85.656c-.137.046-.143.155-.134.275a1.138,1.138,0,0,1,.195-.254c-.022-.039-.039-.062-.06-.022" transform="translate(-4.404 -34.477)" fill="#ed342f"/>
    <path id="패스_1361" data-name="패스 1361" d="M12.838,84.989a1.412,1.412,0,0,0-.281.032c.115.025.318.043.281-.032" transform="translate(-5.056 -34.217)" fill="#ed342f"/>
    <path id="패스_1362" data-name="패스 1362" d="M10.939,86.559a.1.1,0,0,1-.005.023c.076.019.051,0,.005-.023" transform="translate(-4.402 -34.849)" fill="#ed342f"/>
    <path id="패스_1363" data-name="패스 1363" d="M10.882,86.387a.852.852,0,0,0,0-.256.762.762,0,0,0-.091.223.4.4,0,0,1,.09.032" transform="translate(-4.345 -34.677)" fill="#ed342f"/>
    <path id="패스_1364" data-name="패스 1364" d="M12.135,80.318a.381.381,0,0,1-.325.632c-.071.355.706.909,1.249,1.118-.077-.1-.155-.181-.048-.51-.183-.041-.739.191-.726-.171.194-.38.309-.15.554-.172-.362-.147.023-.725-.395-1.047l-.133.373c-.06-.054-.054-.236-.176-.223" transform="translate(-4.753 -32.276)" fill="#ed342f"/>
    <path id="패스_1365" data-name="패스 1365" d="M13.118,83.748l-.068.111a1.1,1.1,0,0,1,.578-.011.484.484,0,0,0-.036-.428l-.476.389Z" transform="translate(-5.254 -33.585)" fill="#ed342f"/>
    <path id="패스_1366" data-name="패스 1366" d="M12.036,84.312c-.139-.292-.009-.592-.37-.712-.253.264-.013.363-.081.61.38-.458-.007.241.424.079a1.037,1.037,0,0,1-.178.277,1.8,1.8,0,0,1,.32-.1l-.023-.005v0l0,0c-.045-.011-.067-.022-.03-.025,0,0,0-.01,0-.013a.524.524,0,0,1-.06-.1c.168-.07.074.04.06.1.009.012.016.026.026.038h0l.318-.526a1.288,1.288,0,0,0-.409.381" transform="translate(-4.649 -33.658)" fill="#ed342f"/>
    <path id="패스_1367" data-name="패스 1367" d="M6.966,86.255a.117.117,0,0,1,.062.039c0-.054,0-.082-.062-.039" transform="translate(-2.805 -34.718)" fill="#ed342f"/>
    <path id="패스_1368" data-name="패스 1368" d="M7.307,86.221c0,.061.056.176-.068.247-.152.014-.1-.109-.174-.179-.006.118-.065.363.231.293l0-.059a1.083,1.083,0,0,1,.731.05,2.549,2.549,0,0,0-.721-.352" transform="translate(-2.841 -34.713)" fill="#ed342f"/>
    <path id="패스_1369" data-name="패스 1369" d="M9.773,85.073l.257-.446L9.665,84.6l.119.109c-.248.144-.069.248-.011.362" transform="translate(-3.888 -34.061)" fill="#ed342f"/>
    <path id="패스_1370" data-name="패스 1370" d="M14.242,83.344l.174.284-.105-.531Z" transform="translate(-5.734 -33.455)" fill="#ed342f"/>
    <path id="패스_1371" data-name="패스 1371" d="M14.982,82.724l.176.224.007-.24Z" transform="translate(-6.032 -33.298)" fill="#ed342f"/>
    <path id="패스_1372" data-name="패스 1372" d="M55.123,37.144l.05-.158a.441.441,0,0,0-.05.158" transform="translate(-22.193 -14.891)" fill="#ed342f"/>
    <path id="패스_1373" data-name="패스 1373" d="M53.83,38.427l.077.119c-.017-.089-.042-.145-.077-.119" transform="translate(-21.672 -15.468)" fill="#ed342f"/>
    <path id="패스_1374" data-name="패스 1374" d="M34.2,64.666c.335.05.787.191.551-.025l-.259-.184a.357.357,0,0,1-.292.209" transform="translate(-13.771 -25.951)" fill="#ed342f"/>
    <path id="패스_1375" data-name="패스 1375" d="M45.2,50.265l-.11-.027.1.314c0-.087.007-.185.011-.287" transform="translate(-18.152 -20.226)" fill="#ed342f"/>
    <path id="패스_1376" data-name="패스 1376" d="M43.982,48.51l.341-.042a.925.925,0,0,0-.341.042" transform="translate(-17.707 -19.512)" fill="#ed342f"/>
    <path id="패스_1377" data-name="패스 1377" d="M61.569,30.042l-.095-.346c-.191.182,0,.218.095.346" transform="translate(-24.717 -11.956)" fill="#ed342f"/>
    <path id="패스_1378" data-name="패스 1378" d="M22.861,75.019a1.035,1.035,0,0,0,.46-.171c-.282.018-.594-.058-.46.171" transform="translate(-9.191 -30.134)" fill="#ed342f"/>
    <path id="패스_1379" data-name="패스 1379" d="M58.366,41.6a.218.218,0,0,0-.039-.223c-.03.1-.027.18.039.223" transform="translate(-23.475 -16.659)" fill="#ed342f"/>
    <path id="패스_1380" data-name="패스 1380" d="M24.037,74.248a1.1,1.1,0,0,0-.12.012.854.854,0,0,1-.263.346c.209-.013.4-.079.384-.358" transform="translate(-9.523 -29.893)" fill="#ed342f"/>
    <path id="패스_1381" data-name="패스 1381" d="M87.159,6.731a.493.493,0,0,1,.06-.005c-.026-.033-.042-.021-.06.005" transform="translate(-35.091 -2.7)" fill="#ed342f"/>
    <path id="패스_1382" data-name="패스 1382" d="M98.024,3.591a1.184,1.184,0,0,1-.164.188c.047-.016.1-.068.164-.188" transform="translate(-39.399 -1.446)" fill="#ed342f"/>
    <path id="패스_1383" data-name="패스 1383" d="M18.267,79.97c-.085.108.008.04,0,0" transform="translate(-7.34 -32.196)" fill="#ed342f"/>
    <path id="패스_1384" data-name="패스 1384" d="M16.038,79.114a.237.237,0,0,0-.063-.148.3.3,0,0,1,.063.148" transform="translate(-6.432 -31.792)" fill="#ed342f"/>
    <path id="패스_1385" data-name="패스 1385" d="M23.717,70.326l.009-.008c-.071-.017-.058-.013-.009.008" transform="translate(-9.532 -28.306)" fill="#ed342f"/>
    <path id="패스_1386" data-name="패스 1386" d="M17.88,79.995a.65.65,0,0,0,.19-.051.669.669,0,0,0-.19.051" transform="translate(-7.199 -32.186)" fill="#ed342f"/>
    <path id="패스_1387" data-name="패스 1387" d="M18.009,80.178l-.108.059c.023.05.056.063.108-.059" transform="translate(-7.207 -32.28)" fill="#ed342f"/>
    <path id="패스_1388" data-name="패스 1388" d="M18.381,79.734a.58.58,0,0,1-.183.125c.034,0,.054,0,.056.015l.127-.14" transform="translate(-7.327 -32.101)" fill="#ed342f"/>
    <path id="패스_1389" data-name="패스 1389" d="M74.629,20.452a.237.237,0,0,1,.041,0c.011-.188-.019-.132-.041,0" transform="translate(-30.046 -8.186)" fill="#ed342f"/>
    <path id="패스_1390" data-name="패스 1390" d="M34.844,56.832c0,.007,0,.014,0,.022l.022-.006Z" transform="translate(-14.028 -22.881)" fill="#ed342f"/>
    <path id="패스_1391" data-name="패스 1391" d="M35.057,55.994c.112.424-.007.47-.177.516l.729.546Z" transform="translate(-14.043 -22.543)" fill="#ed342f"/>
    <path id="패스_1392" data-name="패스 1392" d="M40.7,20.466l-.44.032c-.016-.618.309-.708-.193-.774.633.743-.9.986-.265,1.728l-.3.006c.054-.038.022-.087.075-.124-.637-.039.246.737-.259,1.023-.194.081-.391.073-.372-.1l-.154.476c-.106.074-.2-.07-.094-.145l-.432.517-.016-.025a3.3,3.3,0,0,1,.032.644c-.219.015-.008-.134-.124-.193l-.107.427c-.282-.081-.227-.47-.017-.619-.916-.471-.054.39-.985.489l.168-.331c-.541-.247-.6.086-1.125.106.192.067,1.169.089,1.043.542-.133.024-.265.1-.289.393-.238-.251-.333-.044-.512.153l-.3-.347c-.117.293.059.449.078.714-.262.186-.553-.027-.812-.194-.421.3.645.173.266.652-.429.164-.518.505-.7,1.056-.323.09-.154-.241-.321-.263l.058.449c-.053.038-.114-.059-.145-.108-.064.257.3.347.131.679.278.434-1.026-.048-.952.664-.167-.023-.155-.24-.3-.348a3.181,3.181,0,0,0-.2,1.248l-.51.062c.458.044.45.607.429,1.084a3.978,3.978,0,0,0,.453.1l-.231.551c-.1-.01-.167-.163-.232-.364a1.322,1.322,0,0,0,0,.148c-.259.009-.366-.253-.438-.535l.337.073a1.718,1.718,0,0,0-.414-.784.356.356,0,0,1-.046.213.286.286,0,0,0-.1-.166c-.047-.023-.019.09,0,.236l-.44-.289.117.168-.741.252a4.218,4.218,0,0,1-.28,2.283c-.108-.41-.386-.477-.681-.808.483.193.323-.573.7-.789a.205.205,0,0,1-.313-.167l-.256.822c-.235-.277-.3-.091-.548-.068.6.425-.082.729-.155,1.1-.178-.164-.292-.393.019-.6-.669-.116.188.977-.421.915.063-.066.124-.072.066-.186-.008.3-.5.529-.558.293l.063-.066c-.5.348-1.347,1.243-1,1.75a6.943,6.943,0,0,1-.5-.706l.612,2.232c-.288-.447-1.4-1.113-1.24-1.669a.541.541,0,0,0-.441.44c.122-.011.7.388.63.514a3.223,3.223,0,0,0-1.07-.11c.185-.017.625.694.437.832-.057-.114-.566-.579-.563-.7l.127.982c.007-.2-.447-.517-.7-.6.151.075-.376.329-.433.492l.306-.029c-.56.353.3,1.266-.2,1.675-.057-.175-.557-.881-.867-.732.171.4.866,1.906.664,2.528l-.241-.1-.138.5a14.772,14.772,0,0,1-.594-2.775c-.305.029-.239-.157-.492.106-.245-.074-.083-.381-.013-.464l-.72.474c.357.327-.146.8.151,1.068l.335-.993c.355.327.542,1.364.043,1.711-.243-.036-.5-.7-.619-.814.056.174-.2.621-.323.572l.011-.363c-.369.1.035.84-.573.777-.123.072-.727-.171-.55.053a6.447,6.447,0,0,1,1.9,1.869,4.6,4.6,0,0,1-1.195.021c-.461-.16-.448-.986-.843-1.125a.68.68,0,0,1,.1.381c-.183.017-.233-.339-.425-.08.294.394-.5.409.171.4-.132.313-.31.151-.562.414a1.451,1.451,0,0,1,.36,1.323.727.727,0,0,0-.308-.2c-.5.4-.9.47-1.335.87-.12-.05-.427.04-.482-.2,0,.122.052.3-.074.429-.547-.068.254-.326-.289-.513.176.223-.079.608-.149.916.357.266.5-.348.568-.655a1.784,1.784,0,0,1,.248,1.842c-.258.445-.422-.141-.427-.02-.75.552.142,1.31-.718,1.513-.486-.075-.532-.552-.771-.71.195-.381.618-.24.806-.437l-.369.095c.006-.18.136-.434.319-.452-.423-.08-1.19,1.015-1.931,1.266,0,.182-.075.428.107.471l.129-.193c.363.087-.019.6.289.516-.073.366-.088.849-.52,1.01l-.358-.267c.094.088.382,0,.379-.178,0,.264-.884.009-.635.564l.427.019c-.072.369-.03.967-.4,1.123.421.2.03-.1.572.094-.6-.3.727-.639,0-.871.6.244.519-.141,1.125-.018-.107-.1-.283-.116,0-.28a.589.589,0,0,1-.036-.141l.023-.007h-.024c0-.025-.007-.03-.009,0a.494.494,0,0,1-.268-.051c-.112-.351.265-.687.273-.93.185-.078.056.176.236.219l.012-.363c.238.219.731.051.533.491l.3-.261a.693.693,0,0,0,.635-.43c.185-.077.106-.584.157-.288l.323-.572.059.055c.48-.391.569-1.256,1.482-1.312a1.093,1.093,0,0,1,.5-.59l.24.158c.129-.253.777-.342.664-.633.722.353,1.061-.762,1.5-.985l-.235-.278a2.583,2.583,0,0,0,.6-.871l-.237-.219c.073-.428.807-.438,1.186-.835.056.115-.067.187-.19.2.974.087.651-1.326,1.446-1.342a.251.251,0,0,1,.265-.241.056.056,0,0,0-.016.036.239.239,0,0,0,.047-.038c.086,0,.179,0,.267-.015a.721.721,0,0,0-.244-.008,1.326,1.326,0,0,0,.247-.4l.289.2c.007-.013.016-.02.022-.034.208-.02-.014-.211-.256-.34a.861.861,0,0,0,.022-.305c.479.316.2-.439.738-.13-.114-.29.475-.739.125-1.247.058.054.121.048.057.114.186-.078.371-.155.378-.4l.358.266-.1-.711c.366.024.548.068.6.484.086-.789.223-.475.247-1.2l.176.225c.126-.132.081-.609.321-.512.667.116,1.532-1.321,2.642-1.669-.719-.473.612-.059.2-.56.179.1.363.085.356.327.259-.506.8-.318.7-.969.18.1.114.29.234.339,0-.06.007-.242.129-.194s.056.174.052.3c.378-.4,0-.878-.358-1.323.388.009.463-.113.354-.523.2.07.45.1.247.384.159-.109,1.042-.594.744-.942.123.044.219-.157.22-.23a3.781,3.781,0,0,0,.667-.585l-.137.024c-.255-.517.171-.33.373-.612l.032.048c.837-.244.112-.371.982-.566l-.265-.222c-.453-.589.792-.149.922-.662l-.251-.033c0-.352,1.182.266,1.422.165.082.011.01.134-.012.22.763-.122-.248-.386.027-.791.23.117.34.529.6.342.25.033.136-1.216.773-1.177-.2-.07-.4-.14-.332-.4.2-.283,1.152-.115.97-.756a.237.237,0,0,1,.145.065c.084-.29.44-.765.333-1.106.988.7.776-1.53,1.522-.728l.539-.592.062.1a.792.792,0,0,0,.322-.928c.137-.027.145.107.176.155.693-.352.715-.437.8-1.263l.291.214c-.019-.267,1.164-.336,1.411-1.14a.256.256,0,0,1,.051.171c.311-.869,2.108-.638,1.438-1.786l.175-.605c-.579.41-.31-.48-.668-.437.149-.245.787-.208.587.074l-.083-.011c.373.576.8-.427,1.1-.079.98-.975,2.216-1.63,3.176-2.5l-.47-.278.348-.289c.171.007.4.188.149.394.328.1.221-.552.149-.641.605-.28.243.613.392.489l.163-.209-.085,0c.007-.3-.134-.479.164-.727.25-.092.314.148.4.1.025.027.06.017.117-.091l.444-.36-.451-.143c.043-.321.4-.352-.109-.511.778.259,1.719-1.271,2.046-1.272A1.362,1.362,0,0,1,56,9.741c-.137.011-.505-.281-.195-.5.564.789.783-.167,1.479.125-.513-.146.691-.81-.065-.99.28-.158.262.247.589.249.281-.778,1.351-.946,1.928-1.666-.076-.1-.32-.136-.308-.406l.786.123c.089-.168-.382-.64.16-.551-.108-.044-.268-.112-.208-.225,1.726-.788,2.31-2.88,4.431-3.3-.348-.007-.246-.138-.115-.273-.129.041-.213-.227-.35-.333l.883-.182c-.229-.438.57-.585.314-.967l-.119.225C65.068.47,64.055.527,63.614,0c.161.686-1.312,0-1.136,1.034-.191-.012-.073-.236-.234-.3.1.315.008.483-.326.617l-.024-.078A8.178,8.178,0,0,1,59.87,2.62l.292.192a.705.705,0,0,1-.44.09c.168.55.482-.416.7.156-.7-.292-1.169,1.091-1.858.664-.256.237.346.214.091.45l-.215-.09.125.258a.525.525,0,0,1-.6-.112c.055-.023.079-.145.112-.2-.388.023-.547.636-.678.647l.333-.136c-.553.8-1.588,1.394-1.958,2.339l.162.068c-.305.7-.53.259-1,.888l-.006-.047a.7.7,0,0,1-.26.553c.011-.269-.519-.011-.477-.338-.333.754-.1.44-.054,1.216l-.268-.112c.041.292.119.394-.113.707.071-.382-.458-.124-.41-.585-.986.134-.466,1.25-1.321.888.238.788.789-.185.747.072.293.055.157.609-.078.73-.2.165-.967-.381-1.428.076.049-.042.014-.085.062-.127-.305.031-.17.511-.6.5.185.437-.3.247.057.691l.342-.5c-.143.34.085,1.039-.541,1.188a1.048,1.048,0,0,1-.005-.475c-.234-.01-.152.3-.393.286-.356-.445.44-.587.405-1.149-.292-.054-.213.769-.505.2.349.746-.532.367-.44,1.1l-.212-.266c-.015.086-.008.3-.107.383l-.136-.479c0,.517-.724.232-.831.616.511-.5.4.187.789.16-.326.936-.98-.3-1.584.5.064-.127.5-.2.461.062a1.168,1.168,0,0,1-.661.1c-.426.5.313.185.255.528-.447-.148-.117.344-.234.636l-.239-.25c-.693.351.352.66-.318.926l-.124-.543-.169.33-.218-.336c-.076.474-.213.5-.559.676a.475.475,0,0,1,.164.725c-.3,0-.135-.326-.44.032-.072-.23-.175-.507.192-.415-.062-.1-.073-.229-.134-.325-.338-.005-.479.38-.6.5a.313.313,0,0,1,.189-.067l-.164.814c-.167-.021-.176-.155-.186-.287-.074.121-.033.3-.161.462-.154-.24-.363-.443-.246-.735l-.255.671c-.115-.06-.471-.017-.481-.149-.373.126-.263,1-.757,1.168a.3.3,0,0,1-.027.228c-.367.26-.891.281-1.01.925l-.563-.161c-.223.368.731.183.36.8-.244.453-.427-.188-.647-.172,0,.352.045,1.019-.562,1.028.044-.171.179-.2.254-.32m-3.556,3.675c.022-.121.013-.42.2-.321.189.366,0,.288-.2.321m-5.092,5.924c-.024-.134.1-.17.281-.162a.339.339,0,0,1-.281.162M17.842,46.556a.093.093,0,0,0,0-.02c.254-.051.16-.036,0,.02m-.438.2a.123.123,0,0,0,.082.122c-.036-.086.035-.161.138-.222-.086-.044-.172-.05-.22.1m35.851-33.8-.128,0c.079-.21.1-.107.128,0" transform="translate(-6.017 0)" fill="#ed342f"/>
    <path id="패스_1393" data-name="패스 1393" d="M44.128,48.744a.556.556,0,0,1,.16.109c-.011-.069-.057-.119-.16-.109" transform="translate(-17.766 -19.624)" fill="#ed342f"/>
    <path id="패스_1394" data-name="패스 1394" d="M61.7,30.34c.006,0,.009-.006.014-.008a.253.253,0,0,0-.032-.056Z" transform="translate(-24.835 -12.189)" fill="#ed342f"/>
    <path id="패스_1395" data-name="패스 1395" d="M24.431,66.547a.417.417,0,0,1,.255.007c-.054-.066-.134-.088-.255-.007" transform="translate(-9.836 -26.771)" fill="#ed342f"/>
    <path id="패스_1396" data-name="패스 1396" d="M16.669,81.582l.154-.266c-.092.109-.181.088-.271.1.06.055.18.1.116.168" transform="translate(-6.664 -32.738)" fill="#ed342f"/>
    <path id="패스_1397" data-name="패스 1397" d="M11.138,82.028c0,.06-.064.065-.065.125l.118.11c.127-.132.133-.314-.053-.235" transform="translate(-4.458 -33.017)" fill="#ed342f"/>
    <path id="패스_1398" data-name="패스 1398" d="M14.838,80.606c-.215-.2-.283,0-.4.18a.1.1,0,0,1,.026-.025c.233.339.3.091.37-.155" transform="translate(-5.814 -32.419)" fill="#ed342f"/>
    <path id="패스_1399" data-name="패스 1399" d="M14.3,81.029a.439.439,0,0,1-.134.135c.094.136.079-.028.134-.135" transform="translate(-5.704 -32.623)" fill="#ed342f"/>
    <path id="패스_1400" data-name="패스 1400" d="M18.547,79.08c-.122.012.208.314.087.265.172.345.172-.771-.087-.265" transform="translate(-7.456 -31.784)" fill="#ed342f"/>
    <path id="패스_1401" data-name="패스 1401" d="M13.809,79.623l.3.213L14,79.545Z" transform="translate(-5.56 -32.025)" fill="#ed342f"/>
    <path id="패스_1402" data-name="패스 1402" d="M15.894,78.147l-.309.151a.128.128,0,0,1,.019.149c.157-.129.368-.228.29-.3" transform="translate(-6.275 -31.462)" fill="#ed342f"/>
    <path id="패스_1403" data-name="패스 1403" d="M15.514,78.65a.34.34,0,0,0-.154.224.746.746,0,0,0,.154-.224" transform="translate(-6.184 -31.665)" fill="#ed342f"/>
    <path id="패스_1404" data-name="패스 1404" d="M14.238,78.93l.122-.012.188-.138Z" transform="translate(-5.732 -31.717)" fill="#ed342f"/>
    <path id="패스_1405" data-name="패스 1405" d="M20.468,73.936l.193-.32c-.057-.116-.18-.1-.244.023,0,.121-.07.247.051.3" transform="translate(-8.211 -29.606)" fill="#ed342f"/>
    <path id="패스_1406" data-name="패스 1406" d="M18.065,74.073c.122-.012.181.042.3.091l-.3-.333Z" transform="translate(-7.273 -29.725)" fill="#ed342f"/>
    <path id="패스_1407" data-name="패스 1407" d="M19.107,72.65c-.058-.115.14-.614-.174-.284.057.115-.137.434.174.284" transform="translate(-7.619 -29.09)" fill="#ed342f"/>
    <path id="패스_1408" data-name="패스 1408" d="M26.462,67.445l-.063.066.507.525Z" transform="translate(-10.628 -27.154)" fill="#ed342f"/>
    <path id="패스_1409" data-name="패스 1409" d="M30.223,59.877c-.431.161.233.4-.2.5.045.194.352-.084.379.095.064-.307.233-.324-.181-.6" transform="translate(-12.088 -24.107)" fill="#ed342f"/>
    <path id="패스_1410" data-name="패스 1410" d="M30.645,60.873a.95.95,0,0,0-.02.17.422.422,0,0,0,.02-.17" transform="translate(-12.33 -24.508)" fill="#ed342f"/>
    <path id="패스_1411" data-name="패스 1411" d="M99.807,2.82l.3-.079-.3-.056Z" transform="translate(-40.183 -1.081)" fill="#ed342f"/>
    <path id="패스_1412" data-name="패스 1412" d="M99.817,1.566l.37.291-.173-.416c-.03.058-.09.169-.2.125" transform="translate(-40.187 -0.58)" fill="#ed342f"/>
    <path id="패스_1413" data-name="패스 1413" d="M50.117,40.14l.061.1c.114.059.166.022.272-.053Z" transform="translate(-20.177 -16.161)" fill="#ed342f"/>
    <path id="패스_1414" data-name="패스 1414" d="M54.984,36.3l-.053.036.375.225Z" transform="translate(-22.116 -14.614)" fill="#ed342f"/>
    <path id="패스_1415" data-name="패스 1415" d="M58.015,32.064c-.1.075-.148.246-.253.321.149-.246.637.038.253-.321" transform="translate(-23.255 -12.909)" fill="#ed342f"/>
  </g>
</svg>
