<svg id="Layer_1" data-name="Layer 1" xmlns="http://www.w3.org/2000/svg" viewBox="0 0 45 45"><defs><style>.cls-1{fill:#666;stroke:#666;stroke-miterlimit:10;}</style></defs><g id="Layer_1-2" data-name="Layer 1"><path class="cls-1" d="M30.78,20.38H18a1,1,0,0,1,0-2.08H30.77a1,1,0,0,1,0,2.08Z"/><path class="cls-1" d="M15,20.38a1.07,1.07,0,0,1-.74-.3,1.46,1.46,0,0,1-.22-.33,1.11,1.11,0,0,1-.08-.41,1,1,0,0,1,.3-.73,1.07,1.07,0,0,1,1.47,0,1,1,0,0,1,0,1.47A1,1,0,0,1,15,20.38Z"/><path class="cls-1" d="M30.78,25.24H18a1,1,0,1,1,0-2.07H30.77a1,1,0,1,1,0,2.07Z"/><path class="cls-1" d="M15,25.24a1.1,1.1,0,0,1-.4-.08,1,1,0,0,1-.34-.23,1,1,0,0,1-.3-.72,1.1,1.1,0,0,1,.08-.4,1.17,1.17,0,0,1,.22-.34,1.09,1.09,0,0,1,1.47,0,.87.87,0,0,1,.22.34,1.11,1.11,0,0,1,.09.4,1.06,1.06,0,0,1-.09.39.83.83,0,0,1-.22.33.86.86,0,0,1-.34.23A1,1,0,0,1,15,25.24Z"/><path class="cls-1" d="M30.78,30.11H18A1,1,0,0,1,18,28H30.77a1,1,0,1,1,0,2.08Z"/><path class="cls-1" d="M15,30.11a1.1,1.1,0,0,1-.4-.08,1.27,1.27,0,0,1-.34-.23,1.46,1.46,0,0,1-.22-.33,1.11,1.11,0,0,1-.08-.41,1.1,1.1,0,0,1,.46-.86l.18-.09.19-.06a.88.88,0,0,1,.6.06.86.86,0,0,1,.34.23,1,1,0,0,1,.31.72,1.12,1.12,0,0,1-.09.41,1,1,0,0,1-.95.64Z"/><path class="cls-1" d="M30.78,35H18a1,1,0,1,1,0-2.07H30.77a1,1,0,1,1,0,2.07Z"/><path class="cls-1" d="M15,35a1,1,0,0,1-.74-.3,1,1,0,0,1-.3-.73,1.1,1.1,0,0,1,.08-.4,1.52,1.52,0,0,1,.22-.34l.16-.12a.54.54,0,0,1,.18-.1l.19-.06a1,1,0,0,1,.6.06,1.11,1.11,0,0,1,.34.22,1,1,0,0,1,.22.34,1.11,1.11,0,0,1,.09.4,1,1,0,0,1-.31.73,1,1,0,0,1-.34.23A1,1,0,0,1,15,35Z"/><path class="cls-1" d="M35.22,42.19H9.78a2.66,2.66,0,0,1-2.65-2.66V5.47A2.66,2.66,0,0,1,9.78,2.81h9.48a1,1,0,0,1,0,2.08H9.78a.58.58,0,0,0-.58.58V39.53a.58.58,0,0,0,.58.58H35.22a.58.58,0,0,0,.58-.58V5.47a.58.58,0,0,0-.58-.58H33.79a1,1,0,1,1,0-2.08h1.43a2.66,2.66,0,0,1,2.65,2.66V39.53A2.66,2.66,0,0,1,35.22,42.19Z"/><polygon class="cls-1" points="24 3.41 24 10.85 27.71 6.81 31.4 10.85 31.4 3.41 24 3.41"/></g></svg>