<svg id="Layer_1" data-name="Layer 1" xmlns="http://www.w3.org/2000/svg" viewBox="0 0 45 45"><defs><style>.cls-1{fill:#666;}</style></defs><g id="Layer_1-2" data-name="Layer 1"><path class="cls-1" d="M44.5,21.72l-17.1-17a7,7,0,0,0-9.8,0L.51,21.72a1.7,1.7,0,0,0,0,2.43,1.71,1.71,0,0,0,2.44,0l17.1-17a3.49,3.49,0,0,1,4.9,0l17.1,17a1.74,1.74,0,0,0,1.22.51,1.73,1.73,0,0,0,1.22-2.94Z"/><path class="cls-1" d="M35.48,20.77a1.73,1.73,0,0,0-1.73,1.72V35.41a3.47,3.47,0,0,1-3.47,3.45h-.86V28.53H15.58V38.86h-.86a3.47,3.47,0,0,1-3.47-3.45V22.49a1.73,1.73,0,0,0-3.46,0V35.41a6.92,6.92,0,0,0,6.93,6.9H30.29a6.92,6.92,0,0,0,6.93-6.9V22.49a1.73,1.73,0,0,0-1.73-1.72ZM19,38.85V32H26v6.89Z"/></g></svg>