<svg id="Layer_1" data-name="Layer 1" xmlns="http://www.w3.org/2000/svg" viewBox="0 0 45 45"><defs><style>.cls-1{fill:#666;}</style></defs><g id="Layer_1-2" data-name="Layer 1"><path class="cls-1" d="M22.49,21.89a9.09,9.09,0,1,0-9.08-9.09,9.08,9.08,0,0,0,9.08,9.09Zm0-14.53A5.46,5.46,0,1,1,17,12.82,5.46,5.46,0,0,1,22.49,7.36Z"/><path class="cls-1" d="M32.78,23.11H12.19A11.51,11.51,0,0,0,.69,34.61v4.85a1.82,1.82,0,1,0,3.63,0V34.61a7.89,7.89,0,0,1,7.88-7.88H32.8a7.89,7.89,0,0,1,7.88,7.88v4.85a1.82,1.82,0,1,0,3.63,0V34.61a11.51,11.51,0,0,0-11.5-11.5Z"/></g></svg>