<svg id="Layer_1" data-name="Layer 1" xmlns="http://www.w3.org/2000/svg" viewBox="0 0 45 45"><defs><style>.cls-1{fill:#666;}</style></defs><g id="Layer_1-2" data-name="Layer 1"><path class="cls-1" d="M41.47,8.27V36.73H3.53V8.27H41.47m0-3.16H3.53A3.17,3.17,0,0,0,.37,8.27V36.73a3.17,3.17,0,0,0,3.16,3.16H41.47a3.17,3.17,0,0,0,3.16-3.16V8.27a3.17,3.17,0,0,0-3.16-3.16Z"/><path class="cls-1" d="M16.18,16.82V28.18a1.78,1.78,0,0,0,2.72,1.51L28,24a1.77,1.77,0,0,0,0-3L18.9,15.31A1.78,1.78,0,0,0,16.18,16.82Z"/></g></svg>