<?xml version="1.0" encoding="UTF-8"?><svg id="_레이어_2" xmlns="http://www.w3.org/2000/svg" viewBox="0 0 31.66 27.26"><defs><style>.cls-1{fill:#666;}</style></defs><g id="Layer_1"><g><path class="cls-1" d="M15.83,13.19c3.64,0,6.59-2.96,6.59-6.59S19.46,0,15.83,0s-6.59,2.96-6.59,6.59,2.96,6.59,6.59,6.59Zm0-10.55c2.18,0,3.96,1.77,3.96,3.96s-1.78,3.96-3.96,3.96-3.96-1.77-3.96-3.96,1.78-3.96,3.96-3.96Z"/><path class="cls-1" d="M23.3,14.07H8.35C3.75,14.07,0,17.82,0,22.42v3.52c0,.73,.59,1.32,1.32,1.32s1.32-.59,1.32-1.32v-3.52c0-3.15,2.56-5.72,5.72-5.72h14.95c3.15,0,5.72,2.56,5.72,5.72v3.52c0,.73,.59,1.32,1.32,1.32s1.32-.59,1.32-1.32v-3.52c0-4.61-3.75-8.35-8.35-8.35Z"/></g></g></svg>