<svg id="Layer_1" data-name="Layer 1" xmlns="http://www.w3.org/2000/svg" viewBox="0 0 45 45"><defs><style>.cls-1{fill:#666;}</style></defs><g id="Layer_1-2" data-name="Layer 1"><path class="cls-1" d="M34.8,42.44H18.21a4.87,4.87,0,0,1-4.86-4.87V7.18a4.62,4.62,0,1,1,9.23,0v10.7H34.79a4.87,4.87,0,0,1,4.86,4.86V37.57a4.87,4.87,0,0,1-4.86,4.87ZM18,5a2.21,2.21,0,0,0-2.21,2.21V37.57A2.46,2.46,0,0,0,18.21,40H34.8a2.46,2.46,0,0,0,2.46-2.46V22.74a2.47,2.47,0,0,0-2.46-2.46H20.18V7.18A2.22,2.22,0,0,0,18,5Z"/><rect class="cls-1" x="33.91" y="25.36" width="4.54" height="2.4"/><rect class="cls-1" x="33.91" y="32.02" width="4.54" height="2.4"/><path class="cls-1" d="M15.19,41.18H5.35V17.88h9.84Zm-7.44-2.4h5V20.28h-5Z"/></g></svg>