<svg xmlns="http://www.w3.org/2000/svg" xmlns:xlink="http://www.w3.org/1999/xlink" width="393.426" height="496.016" viewBox="0 0 393.426 496.016">
  <defs>
    <clipPath id="clip-path">
      <rect id="사각형_87" data-name="사각형 87" width="393.426" height="496.016" fill="#5a5a5a"/>
    </clipPath>
  </defs>
  <g id="symbol" opacity="0.1">
    <g id="그룹_88" data-name="그룹 88" clip-path="url(#clip-path)">
      <path id="패스_565" data-name="패스 565" d="M0,44.174,358.322,378.1s-116.9-153.111-120.544-174.43,14.572-53.868,50.336-58.326,70.208,20.513,70.208,20.513-62.589-67.778-122.53-75.8-78.156,12.485-78.156,12.485S40.735,32.626,0,44.174" transform="translate(0 117.912)" fill="#5a5a5a"/>
      <path id="패스_566" data-name="패스 566" d="M66.829,176.756s26.494-48.6,54.973-72.236c0,0-43.052-20.955-73.519-16.051,0,0,61.266-50.336,111.934-34.532,0,0,34.773-54.558,93.391-53.931,0,0-29.8,52.87-29.8,60.189,0,0,48.348,3.307,83.452,48.787,0,0-86.1-2.677-92.062,6.243,0,0,35.1,45.926,35.764,92.745,0,0-46.031-64.257-86.1-66.016s-98.024,34.8-98.024,34.8" transform="translate(86.171 0.002)" fill="#5a5a5a"/>
    </g>
  </g>
</svg>
