<svg xmlns="http://www.w3.org/2000/svg" xmlns:xlink="http://www.w3.org/1999/xlink" width="15" height="13.636" viewBox="0 0 15 13.636">
  <defs>
    <clipPath id="clip-path">
      <rect id="사각형_16" data-name="사각형 16" width="15" height="13.636" fill="#fff"/>
    </clipPath>
  </defs>
  <g id="그룹_6" data-name="그룹 6" clip-path="url(#clip-path)">
    <path id="패스_74" data-name="패스 74" d="M22.633,5.081a1.567,1.567,0,0,0-1.184-.536H17.575a6.372,6.372,0,0,0,.769-3.03,1.552,1.552,0,0,0-3.1,0,3.417,3.417,0,0,1-.6,1.935l-1.092,1.6H12.138v7.071h1.546l.011.126a1.538,1.538,0,0,0,1.546,1.39h5.173a1.542,1.542,0,0,0,1.53-1.266l1.034-6.061a1.49,1.49,0,0,0-.346-1.229" transform="translate(-8)" fill="#fff"/>
    <rect id="사각형_15" data-name="사각형 15" width="3.455" height="9.091" transform="translate(0 4.546)" fill="#fff"/>
  </g>
</svg>
