<svg id="체크" xmlns="http://www.w3.org/2000/svg" width="14" height="14" viewBox="0 0 14 14">
  <path id="패스_679" data-name="패스 679" d="M1284.514,828.727a6.473,6.473,0,1,0,6.473,6.473A6.481,6.481,0,0,0,1284.514,828.727Z" transform="translate(-1277.515 -828.2)" fill="#fff"/>
  <path id="패스_680" data-name="패스 680" d="M1283.041,840.727a7,7,0,1,1,7-7A7.008,7.008,0,0,1,1283.041,840.727Zm0-13.473a6.473,6.473,0,1,0,6.473,6.473A6.481,6.481,0,0,0,1283.041,827.254Z" transform="translate(-1276.041 -826.727)" fill="#bc00ff"/>
  <path id="패스_681" data-name="패스 681" d="M1294.254,837.732l-2.588,6.918-1.985-2.532-1.878.007,3.371,4.3,1.289-.033.277-.586,3.024-8.073Z" transform="translate(-1284.704 -834.833)" fill="#bc00ff"/>
</svg>
