<svg xmlns="http://www.w3.org/2000/svg" width="200" height="43.456" viewBox="0 0 200 43.456">
  <g id="logo" transform="translate(416.426 489.139)">
    <g id="그룹_154" data-name="그룹 154" transform="translate(-416.426 -489.139)">
      <g id="그룹_152" data-name="그룹 152" transform="translate(48.454 35.898)">
        <path id="패스_692" data-name="패스 692" d="M-268.589-376.375v-2.013h-.328v-.324h.328v-.125a.936.936,0,0,1,1.018-1.019,1.167,1.167,0,0,1,.594.155l-.121.323a.891.891,0,0,0-.492-.135c-.449,0-.579.314-.579.685v.116h1.356v2.336h-.42v-2.013h-.937v2.013Z" transform="translate(268.917 379.855)" fill="#221e1f"/>
        <path id="패스_693" data-name="패스 693" d="M-260.4-378.077v.56h.608v.324h-.608v1.26c0,.289.082.454.319.454a.8.8,0,0,0,.246-.029l.019.318a1.022,1.022,0,0,1-.376.063.591.591,0,0,1-.459-.184.866.866,0,0,1-.164-.608v-1.275h-.362v-.324h.362v-.429Z" transform="translate(263.719 378.661)" fill="#221e1f"/>
        <path id="패스_694" data-name="패스 694" d="M-255.546-375.849c0-.241,0-.439-.019-.632h.377l.024.386h.01a.859.859,0,0,1,.772-.439c.324,0,.825.193.825.994v1.4h-.425v-1.347c0-.376-.14-.69-.54-.69a.6.6,0,0,0-.57.434.61.61,0,0,0-.029.2v1.4h-.425Z" transform="translate(259.951 377.625)" fill="#221e1f"/>
        <path id="패스_695" data-name="패스 695" d="M-247.463-375.236a.749.749,0,0,0,.8.811,1.537,1.537,0,0,0,.647-.121l.072.3a1.876,1.876,0,0,1-.777.15,1.089,1.089,0,0,1-1.149-1.183,1.134,1.134,0,0,1,1.1-1.26.99.99,0,0,1,.965,1.1,1.574,1.574,0,0,1-.014.2Zm1.245-.3a.6.6,0,0,0-.589-.69.7.7,0,0,0-.651.69Z" transform="translate(254.782 377.625)" fill="#221e1f"/>
        <path id="패스_696" data-name="패스 696" d="M-240.388-374.579a1.111,1.111,0,0,0,.56.169c.309,0,.454-.154.454-.347s-.121-.314-.434-.43c-.42-.15-.618-.381-.618-.662a.721.721,0,0,1,.806-.685,1.163,1.163,0,0,1,.575.145l-.106.309a.91.91,0,0,0-.478-.135c-.251,0-.391.145-.391.319,0,.193.14.28.444.4.405.154.613.357.613.7,0,.41-.318.7-.873.7a1.33,1.33,0,0,1-.656-.164Z" transform="translate(249.831 377.625)" fill="#221e1f"/>
        <path id="패스_697" data-name="패스 697" d="M-234.572-374.579a1.113,1.113,0,0,0,.56.169c.309,0,.454-.154.454-.347s-.121-.314-.435-.43c-.42-.15-.618-.381-.618-.662a.721.721,0,0,1,.806-.685,1.163,1.163,0,0,1,.574.145l-.106.309a.911.911,0,0,0-.478-.135c-.251,0-.391.145-.391.319,0,.193.14.28.444.4.406.154.613.357.613.7,0,.41-.319.7-.874.7a1.33,1.33,0,0,1-.656-.164Z" transform="translate(245.925 377.625)" fill="#221e1f"/>
        <path id="패스_698" data-name="패스 698" d="M-224.884-378.914a.251.251,0,0,1-.27.26.252.252,0,0,1-.256-.26.259.259,0,0,1,.265-.265A.252.252,0,0,1-224.884-378.914Zm-.473,2.993v-2.337h.425v2.337Z" transform="translate(239.701 379.401)" fill="#221e1f"/>
        <path id="패스_699" data-name="패스 699" d="M-221.851-375.849c0-.241,0-.439-.019-.632h.376l.024.386h.01a.859.859,0,0,1,.772-.439c.324,0,.825.193.825.994v1.4h-.425v-1.347c0-.376-.14-.69-.54-.69a.6.6,0,0,0-.57.434.611.611,0,0,0-.029.2v1.4h-.425Z" transform="translate(237.324 377.625)" fill="#221e1f"/>
        <path id="패스_700" data-name="패스 700" d="M-213.749-378.077v.56h.608v.324h-.608v1.26c0,.289.082.454.318.454a.8.8,0,0,0,.246-.029l.019.318a1.019,1.019,0,0,1-.376.063.591.591,0,0,1-.459-.184.866.866,0,0,1-.164-.608v-1.275h-.362v-.324h.362v-.429Z" transform="translate(232.393 378.661)" fill="#221e1f"/>
        <path id="패스_701" data-name="패스 701" d="M-209.053-375.236a.748.748,0,0,0,.8.811,1.534,1.534,0,0,0,.647-.121l.072.3a1.873,1.873,0,0,1-.777.15,1.089,1.089,0,0,1-1.149-1.183,1.134,1.134,0,0,1,1.1-1.26.99.99,0,0,1,.965,1.1,1.642,1.642,0,0,1-.014.2Zm1.245-.3a.6.6,0,0,0-.589-.69.7.7,0,0,0-.651.69Z" transform="translate(228.989 377.625)" fill="#221e1f"/>
        <path id="패스_702" data-name="패스 702" d="M-199.937-374.483a1.344,1.344,0,0,1-.333,1.067,1.239,1.239,0,0,1-.849.28,1.508,1.508,0,0,1-.777-.193l.106-.323a1.317,1.317,0,0,0,.685.183c.435,0,.753-.227.753-.816v-.261h-.01a.834.834,0,0,1-.743.391,1.044,1.044,0,0,1-.994-1.139,1.121,1.121,0,0,1,1.052-1.241.776.776,0,0,1,.729.406h.01l.019-.353h.372c-.01.169-.019.357-.019.643Zm-.42-1.076a.614.614,0,0,0-.024-.193.613.613,0,0,0-.594-.449c-.405,0-.7.343-.7.883,0,.459.232.84.69.84a.621.621,0,0,0,.589-.434.747.747,0,0,0,.034-.227Z" transform="translate(224.048 377.625)" fill="#221e1f"/>
        <path id="패스_703" data-name="패스 703" d="M-193.5-375.752c0-.275,0-.511-.019-.729h.372l.014.459h.019a.7.7,0,0,1,.647-.512.465.465,0,0,1,.121.014v.4a.643.643,0,0,0-.145-.014.6.6,0,0,0-.57.545,1.214,1.214,0,0,0-.019.2v1.245h-.42Z" transform="translate(218.288 377.625)" fill="#221e1f"/>
        <path id="패스_704" data-name="패스 704" d="M-187.467-374.7a3.3,3.3,0,0,0,.038.56h-.386l-.034-.295h-.014a.87.87,0,0,1-.714.348.666.666,0,0,1-.714-.671c0-.565.5-.873,1.4-.869v-.048a.482.482,0,0,0-.531-.541,1.163,1.163,0,0,0-.608.174l-.1-.28a1.449,1.449,0,0,1,.767-.208c.714,0,.888.488.888.956Zm-.41-.633c-.463-.01-.989.073-.989.526a.376.376,0,0,0,.4.405.581.581,0,0,0,.565-.391.434.434,0,0,0,.024-.135Z" transform="translate(215.448 377.625)" fill="#221e1f"/>
        <path id="패스_705" data-name="패스 705" d="M-181.743-378.077v.56h.608v.324h-.608v1.26c0,.289.082.454.319.454a.8.8,0,0,0,.246-.029l.019.318a1.019,1.019,0,0,1-.376.063.591.591,0,0,1-.459-.184.866.866,0,0,1-.164-.608v-1.275h-.362v-.324h.362v-.429Z" transform="translate(210.9 378.661)" fill="#221e1f"/>
        <path id="패스_706" data-name="패스 706" d="M-176.486-378.914a.251.251,0,0,1-.27.26.252.252,0,0,1-.256-.26.259.259,0,0,1,.265-.265A.252.252,0,0,1-176.486-378.914Zm-.473,2.993v-2.337h.425v2.337Z" transform="translate(207.201 379.401)" fill="#221e1f"/>
        <path id="패스_707" data-name="패스 707" d="M-171.645-375.332a1.142,1.142,0,0,1-1.163,1.241,1.111,1.111,0,0,1-1.12-1.2,1.141,1.141,0,0,1,1.159-1.241A1.107,1.107,0,0,1-171.645-375.332Zm-1.854.024c0,.511.295.9.71.9s.71-.381.71-.907c0-.4-.2-.9-.7-.9S-173.5-375.752-173.5-375.308Z" transform="translate(205.13 377.625)" fill="#221e1f"/>
        <path id="패스_708" data-name="패스 708" d="M-165.389-375.849c0-.241,0-.439-.02-.632h.377l.024.386h.01a.86.86,0,0,1,.773-.439c.323,0,.825.193.825.994v1.4h-.425v-1.347c0-.376-.14-.69-.54-.69a.6.6,0,0,0-.57.434.61.61,0,0,0-.029.2v1.4h-.425Z" transform="translate(199.41 377.625)" fill="#221e1f"/>
        <path id="패스_709" data-name="패스 709" d="M-154.124-375.849c0-.241,0-.439-.019-.632h.372l.019.377h.014a.806.806,0,0,1,.734-.43.691.691,0,0,1,.661.468h.01a.965.965,0,0,1,.26-.3.8.8,0,0,1,.517-.164c.309,0,.767.2.767,1.014v1.376h-.415v-1.323c0-.449-.164-.719-.507-.719a.55.55,0,0,0-.5.386.7.7,0,0,0-.034.212v1.443h-.415v-1.4c0-.371-.164-.642-.487-.642a.58.58,0,0,0-.526.425.582.582,0,0,0-.034.208v1.41h-.415Z" transform="translate(191.845 377.625)" fill="#221e1f"/>
        <path id="패스_710" data-name="패스 710" d="M-140.065-375.332a1.142,1.142,0,0,1-1.163,1.241,1.111,1.111,0,0,1-1.12-1.2,1.141,1.141,0,0,1,1.159-1.241A1.107,1.107,0,0,1-140.065-375.332Zm-1.854.024c0,.511.295.9.71.9s.71-.381.71-.907c0-.4-.2-.9-.7-.9S-141.918-375.752-141.918-375.308Z" transform="translate(183.924 377.625)" fill="#221e1f"/>
        <path id="패스_711" data-name="패스 711" d="M-134.3-376.373l.459,1.313a6,6,0,0,1,.188.6h.014c.053-.193.121-.386.2-.6l.454-1.313h.444l-.917,2.336h-.406l-.888-2.336Z" transform="translate(178.825 377.517)" fill="#221e1f"/>
        <path id="패스_712" data-name="패스 712" d="M-127.063-375.236a.749.749,0,0,0,.8.811,1.534,1.534,0,0,0,.647-.121l.073.3a1.876,1.876,0,0,1-.777.15,1.089,1.089,0,0,1-1.149-1.183,1.134,1.134,0,0,1,1.1-1.26.99.99,0,0,1,.965,1.1,1.571,1.571,0,0,1-.014.2Zm1.245-.3a.6.6,0,0,0-.589-.69.7.7,0,0,0-.651.69Z" transform="translate(173.932 377.625)" fill="#221e1f"/>
        <path id="패스_713" data-name="패스 713" d="M-119.636-375.849c0-.241,0-.439-.019-.632h.372l.019.377h.014a.805.805,0,0,1,.734-.43.69.69,0,0,1,.661.468h.01a.966.966,0,0,1,.261-.3.8.8,0,0,1,.516-.164c.309,0,.767.2.767,1.014v1.376h-.415v-1.323c0-.449-.164-.719-.507-.719a.55.55,0,0,0-.5.386.706.706,0,0,0-.034.212v1.443h-.415v-1.4c0-.371-.164-.642-.487-.642a.58.58,0,0,0-.526.425.582.582,0,0,0-.034.208v1.41h-.415Z" transform="translate(168.685 377.625)" fill="#221e1f"/>
        <path id="패스_714" data-name="패스 714" d="M-107.454-375.236a.748.748,0,0,0,.8.811,1.534,1.534,0,0,0,.647-.121l.073.3a1.876,1.876,0,0,1-.777.15,1.089,1.089,0,0,1-1.149-1.183,1.134,1.134,0,0,1,1.1-1.26.99.99,0,0,1,.965,1.1,1.635,1.635,0,0,1-.014.2Zm1.245-.3a.6.6,0,0,0-.589-.69.7.7,0,0,0-.651.69Z" transform="translate(160.764 377.625)" fill="#221e1f"/>
        <path id="패스_715" data-name="패스 715" d="M-100.026-375.849c0-.241,0-.439-.019-.632h.376l.024.386h.01a.859.859,0,0,1,.772-.439c.324,0,.825.193.825.994v1.4h-.425v-1.347c0-.376-.14-.69-.541-.69a.6.6,0,0,0-.57.434.611.611,0,0,0-.029.2v1.4h-.425Z" transform="translate(155.517 377.625)" fill="#221e1f"/>
        <path id="패스_716" data-name="패스 716" d="M-91.924-378.077v.56h.608v.324h-.608v1.26c0,.289.082.454.318.454a.8.8,0,0,0,.246-.029l.019.318a1.022,1.022,0,0,1-.376.063.59.59,0,0,1-.459-.184.864.864,0,0,1-.164-.608v-1.275H-92.7v-.324h.362v-.429Z" transform="translate(150.585 378.661)" fill="#221e1f"/>
      </g>
      <g id="그룹_153" data-name="그룹 153" transform="translate(46.984 14.234)">
        <path id="패스_717" data-name="패스 717" d="M-225.121-445.805h-1.4v18.959a1.963,1.963,0,0,0,1.222-.248,1.578,1.578,0,0,0,.831-1.46V-445.3C-224.465-445.7-224.827-445.81-225.121-445.805Z" transform="translate(241.916 445.806)" fill="#221d1e"/>
        <path id="패스_718" data-name="패스 718" d="M-260.337-445.807h-1.4v5.963h-2.177a5.058,5.058,0,0,0-1.56-3.255,4.527,4.527,0,0,0-3.162-1.2,4.5,4.5,0,0,0-3.4,1.438,5.345,5.345,0,0,0-1.366,3.839,5.341,5.341,0,0,0,1.366,3.84,4.5,4.5,0,0,0,3.4,1.438,4.529,4.529,0,0,0,3.162-1.2,5.058,5.058,0,0,0,1.56-3.255h2.177v10.943a1.936,1.936,0,0,0,1.222-.245,1.6,1.6,0,0,0,.831-1.394v-16.407C-259.679-445.7-259.954-445.821-260.337-445.807Zm-6.354,9.442a2.37,2.37,0,0,1-1.94.975,2.372,2.372,0,0,1-1.94-.975,4.181,4.181,0,0,1-.77-2.659,4.181,4.181,0,0,1,.77-2.658,2.372,2.372,0,0,1,1.94-.975,2.37,2.37,0,0,1,1.94.975,4.179,4.179,0,0,1,.77,2.658A4.179,4.179,0,0,1-266.691-436.365Z" transform="translate(273.394 445.808)" fill="#221d1e"/>
        <path id="패스_719" data-name="패스 719" d="M-197.9-439.521v3.3q0,1.195,1.252,1.193h10.284a1.654,1.654,0,0,0,1.264-.73,1.133,1.133,0,0,0,.154-.915h-10.47a.663.663,0,0,1-.36-.061c-.048-.042-.072-.157-.072-.348v-3.552h9.186a1.384,1.384,0,0,0,.946-.73,1.135,1.135,0,0,0,.154-.915H-197.9v2.76Z" transform="translate(222.7 443.44)" fill="#221d1e"/>
        <path id="패스_720" data-name="패스 720" d="M-207.188-412.525a1.1,1.1,0,0,0,.154.912,1.564,1.564,0,0,0,1.279.73h3.35v6.386a2.038,2.038,0,0,0,1.222-.227,1.381,1.381,0,0,0,.832-1.158v-5h4.887v6.386a2.036,2.036,0,0,0,1.221-.227,1.424,1.424,0,0,0,.832-1.23v-4.928h3.607a1.713,1.713,0,0,0,1.022-.73,1.127,1.127,0,0,0,.154-.912Z" transform="translate(228.968 423.458)" fill="#221d1e"/>
        <path id="패스_721" data-name="패스 721" d="M-130.015-435.516v-5.747h1.335a1.531,1.531,0,0,0,.788-.536,1.831,1.831,0,0,0,.294-1.108h-11.887a1.7,1.7,0,0,0,1.073,1.644h1.4v5.747h-2.777a1.447,1.447,0,0,0,1.416,1.644h7.4a20.924,20.924,0,0,0,4.158-.44,1.241,1.241,0,0,0,1-1.217v-.421A34.32,34.32,0,0,1-130.015-435.516Zm-2.053,0h-2.895v-5.747h2.895Z" transform="translate(183.697 443.86)" fill="#221d1e"/>
        <path id="패스_722" data-name="패스 722" d="M-93.513-445.791h-1.4v10.927a2.586,2.586,0,0,0,1.242-.115,1.312,1.312,0,0,0,.811-1.208v-9A.564.564,0,0,0-93.513-445.791Z" transform="translate(153.539 445.797)" fill="#221d1e"/>
        <path id="패스_723" data-name="패스 723" d="M-111.745-408.524h-10.04v5.541c0,.794.417,1.193,1.253,1.193h8.376c.835,0,1.253-.4,1.253-1.193v-4.763Q-110.9-408.523-111.745-408.524Zm-1.212,4.681c0,.191-.023.306-.072.348a.665.665,0,0,1-.359.06H-119.3a.666.666,0,0,1-.359-.06c-.048-.043-.072-.158-.072-.348v-3.04h6.344a.662.662,0,0,1,.359.06c.049.042.072.157.072.351Z" transform="translate(171.586 420.771)" fill="#221d1e"/>
      </g>
      <path id="패스_724" data-name="패스 724" d="M-416.426-446.141l42.268,29.256s-13.79-13.414-14.219-15.282,1.719-4.719,5.938-5.11a16.665,16.665,0,0,1,8.281,1.8s-7.383-5.938-14.454-6.641-9.219,1.094-9.219,1.094S-411.621-447.152-416.426-446.141Z" transform="translate(416.426 460.341)" fill="#3ca8c0"/>
      <path id="패스_725" data-name="패스 725" d="M-365.955-473.654a28.637,28.637,0,0,1,6.485-6.329s-5.078-1.836-8.672-1.406c0,0,7.227-4.41,13.2-3.025a15.251,15.251,0,0,1,11.016-4.725s-3.516,4.632-3.516,5.273a16.927,16.927,0,0,1,9.844,4.274s-10.157-.235-10.86.547c0,0,4.141,4.024,4.219,8.125,0,0-5.43-5.63-10.157-5.784S-365.955-473.654-365.955-473.654Z" transform="translate(384.003 489.139)" fill="#faaf3f"/>
    </g>
    <g id="그룹_155" data-name="그룹 155" transform="translate(-304.326 -474.021)">
      <path id="패스_726" data-name="패스 726" d="M-62.4-426.638a10.715,10.715,0,0,1-2.072.724,10.6,10.6,0,0,1-2.571.3,7.909,7.909,0,0,1-5.929-2.234q-2.185-2.234-2.184-6.5a11.424,11.424,0,0,1,.574-3.77,7.294,7.294,0,0,1,1.648-2.746,7.12,7.12,0,0,1,2.559-1.673,9.182,9.182,0,0,1,3.333-.574,10.318,10.318,0,0,1,2.534.3,12.285,12.285,0,0,1,2.11.724l-.6,1.673a10.961,10.961,0,0,0-2-.7,8.334,8.334,0,0,0-1.973-.249,7.607,7.607,0,0,0-2.421.374,4.988,4.988,0,0,0-1.973,1.223,5.527,5.527,0,0,0-1.323,2.16,9.792,9.792,0,0,0-.474,3.258,9.507,9.507,0,0,0,.5,3.307,5.768,5.768,0,0,0,1.348,2.16,4.884,4.884,0,0,0,1.96,1.173,7.641,7.641,0,0,0,2.309.349,9.07,9.07,0,0,0,2.035-.237,9.3,9.3,0,0,0,2.01-.711Z" transform="translate(75.162 443.115)" fill="#221d1e"/>
      <path id="패스_727" data-name="패스 727" d="M-19.27-425.275h-1.972l-1.523-4.219h-8.014l-1.523,4.219h-1.972l6.191-16.851h2.6Zm-4.094-5.917-3.42-9.287-3.345,9.287Z" transform="translate(47.705 442.451)" fill="#221d1e"/>
      <path id="패스_728" data-name="패스 728" d="M17.477-442.126l5.992,12.207,5.916-12.207h1.923v16.851H29.386v-12.607l-5.167,10.635H22.67L17.5-437.857v12.582H15.58v-16.851Z" transform="translate(14.227 442.451)" fill="#221d1e"/>
      <path id="패스_729" data-name="패스 729" d="M74.147-432.065v6.79H72.2V-439.53a2.65,2.65,0,0,1,.649-1.935,2.577,2.577,0,0,1,1.922-.661h3.171a6.448,6.448,0,0,1,4.319,1.235,4.777,4.777,0,0,1,1.423,3.807,4.725,4.725,0,0,1-1.423,3.82,6.682,6.682,0,0,1-4.369,1.2Zm1.048-8.363a1.168,1.168,0,0,0-.811.224.958.958,0,0,0-.237.724v5.717h3.57a5.707,5.707,0,0,0,3.02-.636q1-.637,1-2.684a3.027,3.027,0,0,0-1-2.646,5.188,5.188,0,0,0-2.971-.7Z" transform="translate(-23.793 442.451)" fill="#221d1e"/>
      <path id="패스_730" data-name="패스 730" d="M115.566-442.126v10.884a5.482,5.482,0,0,0,.874,3.4,3.846,3.846,0,0,0,3.2,1.123,3.86,3.86,0,0,0,3.208-1.136,5.437,5.437,0,0,0,.886-3.383v-10.884h1.947v10.909q0,3.271-1.573,4.769a6.227,6.227,0,0,1-4.468,1.5,7.764,7.764,0,0,1-2.859-.462,4.509,4.509,0,0,1-1.86-1.311,4.919,4.919,0,0,1-1-1.96,9.721,9.721,0,0,1-.3-2.484v-10.959Z" transform="translate(-51.607 442.451)" fill="#221d1e"/>
      <path id="패스_731" data-name="패스 731" d="M166.519-428.248a3.009,3.009,0,0,0,.949-2.26,2.684,2.684,0,0,0-.624-1.885,4.762,4.762,0,0,0-1.673-1.036l-3.57-1.348a5.966,5.966,0,0,1-2.472-1.586,3.5,3.5,0,0,1-.824-2.359,3.8,3.8,0,0,1,1.548-3.258,6.9,6.9,0,0,1,4.169-1.136,9.7,9.7,0,0,1,2.384.3,14.839,14.839,0,0,1,2.459.874l-.549,1.6q-1.074-.424-2.122-.724a7.866,7.866,0,0,0-2.172-.3,4.169,4.169,0,0,0-2.871.761,2.39,2.39,0,0,0-.8,1.785,1.948,1.948,0,0,0,.562,1.5,4.854,4.854,0,0,0,1.66.923l3.47,1.323a12.194,12.194,0,0,1,1.361.662,4.452,4.452,0,0,1,1.111.886,4.5,4.5,0,0,1,.724,1.286,4.975,4.975,0,0,1,.275,1.735A4.688,4.688,0,0,1,168.092-427a5.858,5.858,0,0,1-4.244,1.386,11.237,11.237,0,0,1-2.609-.312,11.252,11.252,0,0,1-2.834-1.161l.849-1.723q.624.35,1.148.6a10.228,10.228,0,0,0,1.024.424,5.924,5.924,0,0,0,1.086.3,7.527,7.527,0,0,0,1.311.1A3.578,3.578,0,0,0,166.519-428.248Z" transform="translate(-81.615 443.115)" fill="#221d1e"/>
    </g>
  </g>
</svg>
