<svg id="footer_logo" data-name="footer logo" xmlns="http://www.w3.org/2000/svg" xmlns:xlink="http://www.w3.org/1999/xlink" width="123.946" height="50" viewBox="0 0 123.946 50">
  <defs>
    <clipPath id="clip-path">
      <rect id="사각형_71" data-name="사각형 71" width="123.946" height="50" fill="#fff"/>
    </clipPath>
  </defs>
  <g id="그룹_73" data-name="그룹 73" clip-path="url(#clip-path)">
    <path id="패스_500" data-name="패스 500" d="M147.887,113.289v-2.316h-.378V110.6h.378v-.144a1.077,1.077,0,0,1,1.172-1.172,1.343,1.343,0,0,1,.683.178l-.139.372a1.03,1.03,0,0,0-.567-.155c-.517,0-.667.361-.667.788v.133h1.561v2.688h-.483v-2.316H148.37v2.316Z" transform="translate(-91.758 -67.981)" fill="#fff"/>
    <path id="패스_501" data-name="패스 501" d="M156.144,111.063v.644h.7v.372h-.7v1.45c0,.333.094.522.367.522a.911.911,0,0,0,.283-.033l.022.367a1.177,1.177,0,0,1-.433.073.681.681,0,0,1-.528-.211,1,1,0,0,1-.189-.7v-1.466h-.417v-.372h.417v-.494Z" transform="translate(-96.573 -69.087)" fill="#fff"/>
    <path id="패스_502" data-name="패스 502" d="M160.883,113.394c0-.277-.006-.505-.022-.728h.433l.028.444h.011a.989.989,0,0,1,.889-.505c.372,0,.95.222.95,1.144v1.605h-.489v-1.549c0-.434-.161-.794-.622-.794a.717.717,0,0,0-.689.728v1.616h-.489Z" transform="translate(-100.063 -70.046)" fill="#fff"/>
    <path id="패스_503" data-name="패스 503" d="M169.024,114.1a.861.861,0,0,0,.922.933,1.765,1.765,0,0,0,.744-.139l.083.35a2.154,2.154,0,0,1-.894.172,1.252,1.252,0,0,1-1.322-1.361,1.3,1.3,0,0,1,1.26-1.449,1.139,1.139,0,0,1,1.111,1.266,1.9,1.9,0,0,1-.017.228Zm1.433-.35a.7.7,0,0,0-.678-.794.809.809,0,0,0-.749.794Z" transform="translate(-104.851 -70.046)" fill="#fff"/>
    <path id="패스_504" data-name="패스 504" d="M176.054,114.855a1.28,1.28,0,0,0,.644.194c.355,0,.522-.178.522-.4s-.139-.361-.5-.494c-.483-.172-.711-.439-.711-.761a.829.829,0,0,1,.927-.788,1.343,1.343,0,0,1,.661.166l-.122.356a1.049,1.049,0,0,0-.55-.155c-.289,0-.45.166-.45.366,0,.222.161.322.511.455.467.178.706.411.706.811,0,.472-.367.811-1.005.811a1.53,1.53,0,0,1-.755-.189Z" transform="translate(-109.438 -70.046)" fill="#fff"/>
    <path id="패스_505" data-name="패스 505" d="M181.87,114.855a1.28,1.28,0,0,0,.644.194c.355,0,.522-.178.522-.4s-.139-.361-.5-.494c-.483-.172-.711-.439-.711-.761a.829.829,0,0,1,.928-.788,1.343,1.343,0,0,1,.661.166l-.122.356a1.049,1.049,0,0,0-.55-.155c-.289,0-.45.166-.45.366,0,.222.161.322.511.455.467.178.706.411.706.811,0,.472-.367.811-1.005.811a1.53,1.53,0,0,1-.755-.189Z" transform="translate(-113.056 -70.046)" fill="#fff"/>
    <path id="패스_506" data-name="패스 506" d="M191.621,110.266a.3.3,0,0,1-.605,0,.3.3,0,0,1,.305-.305.29.29,0,0,1,.3.305m-.544.755h.489v2.688h-.489Z" transform="translate(-118.821 -68.401)" fill="#fff"/>
    <path id="패스_507" data-name="패스 507" d="M194.578,113.394c0-.277-.006-.505-.023-.728h.433l.028.444h.011a.989.989,0,0,1,.889-.505c.372,0,.95.222.95,1.144v1.605h-.489v-1.549c0-.434-.161-.794-.622-.794a.7.7,0,0,0-.655.5.7.7,0,0,0-.033.228v1.616h-.489Z" transform="translate(-121.023 -70.046)" fill="#fff"/>
    <path id="패스_508" data-name="패스 508" d="M202.793,111.063v.644h.7v.372h-.7v1.45c0,.333.094.522.367.522a.91.91,0,0,0,.283-.033l.022.367a1.176,1.176,0,0,1-.433.073.681.681,0,0,1-.528-.211,1,1,0,0,1-.189-.7v-1.466H201.9v-.372h.416v-.494Z" transform="translate(-125.591 -69.087)" fill="#fff"/>
    <path id="패스_509" data-name="패스 509" d="M207.434,114.1a.861.861,0,0,0,.922.933,1.765,1.765,0,0,0,.744-.139l.083.35a2.154,2.154,0,0,1-.894.172,1.252,1.252,0,0,1-1.322-1.361,1.3,1.3,0,0,1,1.26-1.449,1.139,1.139,0,0,1,1.111,1.266,1.9,1.9,0,0,1-.017.228Zm1.433-.35a.7.7,0,0,0-.678-.794.809.809,0,0,0-.749.794Z" transform="translate(-128.744 -70.046)" fill="#fff"/>
    <path id="패스_510" data-name="패스 510" d="M216.815,114.966a1.548,1.548,0,0,1-.383,1.228,1.426,1.426,0,0,1-.977.322,1.735,1.735,0,0,1-.894-.222l.122-.372a1.515,1.515,0,0,0,.789.211c.5,0,.866-.261.866-.938v-.3h-.011a.959.959,0,0,1-.855.45,1.2,1.2,0,0,1-1.144-1.31,1.29,1.29,0,0,1,1.211-1.428.894.894,0,0,1,.839.467h.011l.022-.406h.427c-.011.195-.022.411-.022.739Zm-.483-1.239a.714.714,0,0,0-.711-.739c-.466,0-.8.394-.8,1.016,0,.528.266.966.794.966a.715.715,0,0,0,.678-.5.847.847,0,0,0,.039-.262Z" transform="translate(-133.322 -70.046)" fill="#fff"/>
    <path id="패스_511" data-name="패스 511" d="M222.926,113.506c0-.316-.006-.589-.022-.839h.428l.017.528h.022a.807.807,0,0,1,.745-.589.534.534,0,0,1,.139.017v.461a.722.722,0,0,0-.167-.017.685.685,0,0,0-.655.627,1.39,1.39,0,0,0-.022.228v1.433h-.483Z" transform="translate(-138.657 -70.046)" fill="#fff"/>
    <path id="패스_512" data-name="패스 512" d="M229.234,114.712a3.79,3.79,0,0,0,.044.644h-.444l-.039-.339h-.017a1,1,0,0,1-.822.4.766.766,0,0,1-.822-.772c0-.65.578-1,1.616-1v-.056a.554.554,0,0,0-.611-.622,1.341,1.341,0,0,0-.7.2l-.111-.322a1.671,1.671,0,0,1,.883-.238c.822,0,1.022.561,1.022,1.1Zm-.472-.728c-.533-.011-1.138.084-1.138.606a.432.432,0,0,0,.461.466.668.668,0,0,0,.65-.45.5.5,0,0,0,.028-.156Z" transform="translate(-141.288 -70.047)" fill="#fff"/>
    <path id="패스_513" data-name="패스 513" d="M234.8,111.063v.644h.7v.372h-.7v1.45c0,.333.094.522.367.522a.911.911,0,0,0,.283-.033l.022.367a1.176,1.176,0,0,1-.433.073.681.681,0,0,1-.528-.211,1,1,0,0,1-.189-.7v-1.466H233.9v-.372h.417v-.494Z" transform="translate(-145.5 -69.087)" fill="#fff"/>
    <path id="패스_514" data-name="패스 514" d="M240.019,110.266a.3.3,0,0,1-.605,0,.3.3,0,0,1,.305-.305.29.29,0,0,1,.3.305m-.544.755h.489v2.688h-.489Z" transform="translate(-148.927 -68.401)" fill="#fff"/>
    <path id="패스_515" data-name="패스 515" d="M245.125,113.99a1.314,1.314,0,0,1-1.339,1.428,1.278,1.278,0,0,1-1.288-1.383,1.312,1.312,0,0,1,1.333-1.427,1.273,1.273,0,0,1,1.294,1.383m-2.133.028c0,.589.339,1.033.816,1.033s.816-.438.816-1.044c0-.455-.228-1.033-.805-1.033s-.827.533-.827,1.044" transform="translate(-150.845 -70.047)" fill="#fff"/>
    <path id="패스_516" data-name="패스 516" d="M251.039,113.394c0-.277-.006-.505-.022-.728h.433l.028.444h.011a.989.989,0,0,1,.889-.505c.372,0,.95.222.95,1.144v1.605h-.489v-1.549c0-.434-.161-.794-.622-.794a.717.717,0,0,0-.689.728v1.616h-.489Z" transform="translate(-156.145 -70.046)" fill="#fff"/>
    <path id="패스_517" data-name="패스 517" d="M262.305,113.394c0-.277-.006-.505-.022-.728h.428l.022.434h.017a.927.927,0,0,1,.844-.494.8.8,0,0,1,.761.539h.011a1.106,1.106,0,0,1,.3-.35.917.917,0,0,1,.594-.189c.356,0,.883.233.883,1.166v1.582h-.478v-1.522c0-.516-.189-.827-.583-.827a.632.632,0,0,0-.577.444.8.8,0,0,0-.039.244v1.66h-.478v-1.61c0-.427-.189-.739-.561-.739a.729.729,0,0,0-.644.727v1.622h-.478Z" transform="translate(-163.153 -70.046)" fill="#fff"/>
    <path id="패스_518" data-name="패스 518" d="M276.705,113.99a1.314,1.314,0,0,1-1.339,1.428,1.278,1.278,0,0,1-1.288-1.383,1.312,1.312,0,0,1,1.333-1.427,1.273,1.273,0,0,1,1.294,1.383m-2.133.028c0,.589.339,1.033.816,1.033s.816-.438.816-1.044c0-.455-.228-1.033-.805-1.033s-.827.533-.827,1.044" transform="translate(-170.49 -70.047)" fill="#fff"/>
    <path id="패스_519" data-name="패스 519" d="M282.194,112.767l.528,1.511a6.933,6.933,0,0,1,.217.689h.017c.061-.222.139-.444.228-.689l.522-1.511h.511l-1.055,2.688h-.467l-1.022-2.688Z" transform="translate(-175.214 -70.146)" fill="#fff"/>
    <path id="패스_520" data-name="패스 520" d="M289.424,114.1a.862.862,0,0,0,.922.933,1.765,1.765,0,0,0,.744-.139l.083.35a2.155,2.155,0,0,1-.894.172,1.252,1.252,0,0,1-1.322-1.361,1.3,1.3,0,0,1,1.26-1.449,1.139,1.139,0,0,1,1.111,1.266,1.908,1.908,0,0,1-.017.228Zm1.433-.35a.7.7,0,0,0-.678-.794.809.809,0,0,0-.749.794Z" transform="translate(-179.746 -70.046)" fill="#fff"/>
    <path id="패스_521" data-name="패스 521" d="M296.793,113.394c0-.277-.006-.505-.022-.728h.428l.022.434h.017a.927.927,0,0,1,.844-.494.8.8,0,0,1,.761.539h.011a1.106,1.106,0,0,1,.3-.35.917.917,0,0,1,.594-.189c.356,0,.883.233.883,1.166v1.582h-.478v-1.522c0-.516-.189-.827-.583-.827a.632.632,0,0,0-.577.444.8.8,0,0,0-.039.244v1.66h-.478v-1.61c0-.427-.189-.739-.561-.739a.729.729,0,0,0-.644.727v1.622h-.478Z" transform="translate(-184.606 -70.046)" fill="#fff"/>
    <path id="패스_522" data-name="패스 522" d="M309.033,114.1a.861.861,0,0,0,.922.933,1.765,1.765,0,0,0,.744-.139l.083.35a2.154,2.154,0,0,1-.894.172,1.252,1.252,0,0,1-1.322-1.361,1.3,1.3,0,0,1,1.26-1.449,1.139,1.139,0,0,1,1.111,1.266,1.894,1.894,0,0,1-.017.228Zm1.433-.35a.7.7,0,0,0-.678-.794.809.809,0,0,0-.749.794Z" transform="translate(-191.944 -70.046)" fill="#fff"/>
    <path id="패스_523" data-name="패스 523" d="M316.4,113.394c0-.277-.006-.505-.022-.728h.433l.028.444h.011a.989.989,0,0,1,.889-.505c.372,0,.95.222.95,1.144v1.605H318.2v-1.549c0-.434-.161-.794-.622-.794a.717.717,0,0,0-.689.728v1.616H316.4Z" transform="translate(-196.804 -70.046)" fill="#fff"/>
    <path id="패스_524" data-name="패스 524" d="M324.619,111.063v.644h.7v.372h-.7v1.45c0,.333.094.522.367.522a.911.911,0,0,0,.283-.033l.022.367a1.176,1.176,0,0,1-.433.073.681.681,0,0,1-.528-.211,1,1,0,0,1-.189-.7v-1.466h-.417v-.372h.417v-.494Z" transform="translate(-201.373 -69.087)" fill="#fff"/>
    <path id="패스_525" data-name="패스 525" d="M191.514,43.334h-1.607V65.148a2.256,2.256,0,0,0,1.406-.286,1.814,1.814,0,0,0,.956-1.68V43.91c0-.456-.416-.581-.755-.576" transform="translate(-118.131 -26.956)" fill="#fff"/>
    <path id="패스_526" data-name="패스 526" d="M158.056,43.332h-1.606v6.861h-2.5a5.819,5.819,0,0,0-1.8-3.746,5.46,5.46,0,0,0-7.547.272,6.15,6.15,0,0,0-1.571,4.418,6.145,6.145,0,0,0,1.571,4.418,5.459,5.459,0,0,0,7.547.272,5.818,5.818,0,0,0,1.8-3.745h2.5V64.673a2.231,2.231,0,0,0,1.406-.282,1.84,1.84,0,0,0,.956-1.6V43.908c0-.456-.316-.592-.756-.576M150.744,54.2a2.782,2.782,0,0,1-4.465,0,4.809,4.809,0,0,1-.886-3.059,4.81,4.81,0,0,1,.886-3.059,2.782,2.782,0,0,1,4.465,0,4.811,4.811,0,0,1,.886,3.059,4.809,4.809,0,0,1-.886,3.059" transform="translate(-88.973 -26.954)" fill="#fff"/>
    <path id="패스_527" data-name="패스 527" d="M218.524,50.035v3.792q0,1.374,1.441,1.373H231.8a1.9,1.9,0,0,0,1.455-.839,1.305,1.305,0,0,0,.178-1.052H221.382a.762.762,0,0,1-.413-.07c-.055-.049-.083-.181-.083-.4V48.751h10.57a1.592,1.592,0,0,0,1.088-.84,1.3,1.3,0,0,0,.177-1.052h-14.2v3.176Z" transform="translate(-135.932 -29.149)" fill="#fff"/>
    <path id="패스_528" data-name="패스 528" d="M209.245,76.615a1.27,1.27,0,0,0,.178,1.049,1.8,1.8,0,0,0,1.472.839h3.854v7.348a2.344,2.344,0,0,0,1.406-.261,1.591,1.591,0,0,0,.957-1.332V78.5h5.622v7.348a2.342,2.342,0,0,0,1.4-.261,1.638,1.638,0,0,0,.957-1.416V78.5h4.151a1.97,1.97,0,0,0,1.176-.839,1.3,1.3,0,0,0,.177-1.049Z" transform="translate(-130.126 -47.658)" fill="#fff"/>
    <path id="패스_529" data-name="패스 529" d="M287.887,54.736V48.124h1.535a1.764,1.764,0,0,0,.907-.616,2.108,2.108,0,0,0,.339-1.276H276.991a1.952,1.952,0,0,0,1.234,1.892h1.607v6.612h-3.2a1.665,1.665,0,0,0,1.63,1.892h8.51a24.071,24.071,0,0,0,4.783-.506,1.428,1.428,0,0,0,1.155-1.4v-.484a39.545,39.545,0,0,1-4.828.5m-2.362,0h-3.331V48.124h3.331Z" transform="translate(-172.062 -28.759)" fill="#fff"/>
    <path id="패스_530" data-name="패스 530" d="M323.123,43.349h-1.607V55.922a2.976,2.976,0,0,0,1.429-.132,1.51,1.51,0,0,0,.934-1.39V44.046a.649.649,0,0,0-.756-.7" transform="translate(-199.998 -26.965)" fill="#fff"/>
    <path id="패스_531" data-name="패스 531" d="M306.193,80.615H294.641v6.376c0,.913.48,1.373,1.441,1.373h9.637c.961,0,1.441-.46,1.441-1.373V81.51c0-.6-.323-.9-.969-.9M304.8,86c0,.22-.027.352-.083.4a.761.761,0,0,1-.413.07h-6.8a.763.763,0,0,1-.414-.07c-.055-.049-.083-.181-.083-.4V82.5h7.3a.765.765,0,0,1,.413.07c.056.049.083.181.083.4Z" transform="translate(-183.281 -50.146)" fill="#fff"/>
    <path id="패스_532" data-name="패스 532" d="M0,43.016,48.633,76.677S32.767,61.243,32.272,59.094s1.978-5.43,6.832-5.879a19.175,19.175,0,0,1,9.529,2.068S40.138,48.451,32,47.642,21.4,48.9,21.4,48.9,5.529,41.852,0,43.016" transform="translate(0 -26.677)" fill="#fff"/>
    <path id="패스_533" data-name="패스 533" d="M50.8,17.818s3.6-4.9,7.461-7.282c0,0-5.843-2.112-9.978-1.618,0,0,8.315-5.074,15.192-3.481A17.548,17.548,0,0,1,76.151,0s-4.045,5.329-4.045,6.067a19.476,19.476,0,0,1,11.326,4.918s-11.686-.27-12.5.629c0,0,4.764,4.63,4.854,9.349,0,0-6.248-6.477-11.686-6.655s-13.3,3.508-13.3,3.508" transform="translate(-30.034 0)" fill="#fff"/>
  </g>
</svg>
