<svg xmlns="http://www.w3.org/2000/svg" xmlns:xlink="http://www.w3.org/1999/xlink" width="18" height="15.627" viewBox="0 0 18 15.627">
  <defs>
    <clipPath id="clip-path">
      <rect id="사각형_112" data-name="사각형 112" width="18" height="15.627" fill="none" stroke="#fff" stroke-width="1"/>
    </clipPath>
  </defs>
  <g id="찜하트" transform="translate(1 -3)">
    <g id="구성_요소_45_22" data-name="구성 요소 45 – 22" transform="translate(-1 3)">
      <g id="그룹_98" data-name="그룹 98" clip-path="url(#clip-path)">
        <path id="패스_661" data-name="패스 661" d="M17.643,4.72A4.265,4.265,0,0,0,13.16.5,4.48,4.48,0,0,0,9.071,3.149,4.478,4.478,0,0,0,4.983.5,4.266,4.266,0,0,0,.5,4.72,6.3,6.3,0,0,0,1.621,7.884c2.321,3.4,6.884,7.384,7.45,7.384.651,0,5.1-4,7.319-7.384A9.231,9.231,0,0,0,17.643,4.72Z" transform="translate(-0.071 -0.071)" fill="none" stroke="#fff" stroke-linecap="round" stroke-linejoin="round" stroke-width="1"/>
      </g>
    </g>
  </g>
</svg>
