<svg id="header_logo" xmlns="http://www.w3.org/2000/svg" xmlns:xlink="http://www.w3.org/1999/xlink" width="370" height="80.394" viewBox="0 0 370 80.394">
  <defs>
    <clipPath id="clip-path">
      <rect id="사각형_109" data-name="사각형 109" width="370" height="80.394" fill="none"/>
    </clipPath>
  </defs>
  <g id="그룹_94" data-name="그룹 94" clip-path="url(#clip-path)">
    <path id="패스_620" data-name="패스 620" d="M148.116,115.724V112h-.607v-.6h.607v-.232A1.732,1.732,0,0,1,150,109.285a2.159,2.159,0,0,1,1.1.286l-.223.6a1.656,1.656,0,0,0-.911-.25c-.831,0-1.072.58-1.072,1.268v.215H151.4v4.322h-.777V112h-1.733v3.724Z" transform="translate(-57.868 -42.873)" fill="#fff"/>
    <path id="패스_621" data-name="패스 621" d="M156.688,111.063V112.1h1.125v.6h-1.125v2.331c0,.535.152.839.589.839a1.464,1.464,0,0,0,.455-.053l.036.589a1.891,1.891,0,0,1-.7.117,1.1,1.1,0,0,1-.848-.34,1.6,1.6,0,0,1-.3-1.125V112.7h-.67v-.6h.67V111.3Z" transform="translate(-60.905 -43.57)" fill="#fff"/>
    <path id="패스_622" data-name="패스 622" d="M160.9,113.874c0-.446-.009-.812-.036-1.17h.7l.045.715h.018a1.59,1.59,0,0,1,1.429-.812c.6,0,1.527.357,1.527,1.839v2.581h-.786v-2.491c0-.7-.259-1.277-1-1.277a1.152,1.152,0,0,0-1.107,1.17v2.6H160.9Z" transform="translate(-63.106 -44.176)" fill="#fff"/>
    <path id="패스_623" data-name="패스 623" d="M169.308,115.008a1.384,1.384,0,0,0,1.482,1.5,2.837,2.837,0,0,0,1.2-.224l.134.563a3.464,3.464,0,0,1-1.437.277,2.014,2.014,0,0,1-2.125-2.188,2.1,2.1,0,0,1,2.027-2.331,1.831,1.831,0,0,1,1.786,2.035,3.05,3.05,0,0,1-.027.366Zm2.3-.563a1.118,1.118,0,0,0-1.09-1.276,1.3,1.3,0,0,0-1.205,1.276Z" transform="translate(-66.126 -44.176)" fill="#fff"/>
    <path id="패스_624" data-name="패스 624" d="M176.128,116.222a2.058,2.058,0,0,0,1.036.312c.571,0,.839-.286.839-.643,0-.375-.223-.58-.8-.795-.777-.277-1.143-.706-1.143-1.223a1.333,1.333,0,0,1,1.491-1.268,2.16,2.16,0,0,1,1.063.267l-.2.572a1.687,1.687,0,0,0-.884-.25c-.464,0-.723.267-.723.589,0,.357.259.518.821.732.75.286,1.135.661,1.135,1.3,0,.759-.589,1.3-1.616,1.3a2.461,2.461,0,0,1-1.214-.3Z" transform="translate(-69.018 -44.176)" fill="#fff"/>
    <path id="패스_625" data-name="패스 625" d="M181.944,116.222a2.058,2.058,0,0,0,1.036.312c.571,0,.839-.286.839-.643,0-.375-.223-.58-.8-.795-.777-.277-1.143-.706-1.143-1.223a1.333,1.333,0,0,1,1.492-1.268,2.159,2.159,0,0,1,1.062.267l-.2.572a1.687,1.687,0,0,0-.884-.25c-.464,0-.723.267-.723.589,0,.357.259.518.821.732.751.286,1.135.661,1.135,1.3,0,.759-.589,1.3-1.617,1.3a2.461,2.461,0,0,1-1.214-.3Z" transform="translate(-71.3 -44.176)" fill="#fff"/>
    <path id="패스_626" data-name="패스 626" d="M191.989,110.452a.486.486,0,0,1-.973,0,.479.479,0,0,1,.491-.491.466.466,0,0,1,.482.491m-.875,1.214h.786v4.322h-.786Z" transform="translate(-74.936 -43.138)" fill="#fff"/>
    <path id="패스_627" data-name="패스 627" d="M194.591,113.874c0-.446-.01-.812-.036-1.17h.7l.045.715h.018a1.591,1.591,0,0,1,1.429-.812c.6,0,1.527.357,1.527,1.839v2.581h-.786v-2.491c0-.7-.259-1.277-1-1.277a1.15,1.15,0,0,0-1.107,1.17v2.6h-.786Z" transform="translate(-76.324 -44.176)" fill="#fff"/>
    <path id="패스_628" data-name="패스 628" d="M203.337,111.063V112.1h1.125v.6h-1.125v2.331c0,.535.151.839.589.839a1.463,1.463,0,0,0,.455-.053l.036.589a1.891,1.891,0,0,1-.7.117,1.094,1.094,0,0,1-.848-.34,1.6,1.6,0,0,1-.3-1.125V112.7h-.67v-.6h.67V111.3Z" transform="translate(-79.205 -43.57)" fill="#fff"/>
    <path id="패스_629" data-name="패스 629" d="M207.718,115.008a1.384,1.384,0,0,0,1.482,1.5,2.837,2.837,0,0,0,1.2-.224l.134.563a3.464,3.464,0,0,1-1.437.277,2.014,2.014,0,0,1-2.125-2.188,2.1,2.1,0,0,1,2.027-2.331,1.831,1.831,0,0,1,1.786,2.035,3.05,3.05,0,0,1-.027.366Zm2.3-.563a1.118,1.118,0,0,0-1.09-1.276,1.3,1.3,0,0,0-1.205,1.276Z" transform="translate(-81.194 -44.176)" fill="#fff"/>
    <path id="패스_630" data-name="패스 630" d="M218.327,116.4a2.488,2.488,0,0,1-.616,1.974,2.293,2.293,0,0,1-1.571.518,2.789,2.789,0,0,1-1.438-.357l.2-.6a2.437,2.437,0,0,0,1.268.339c.8,0,1.393-.42,1.393-1.509v-.482h-.018a1.542,1.542,0,0,1-1.375.723,1.932,1.932,0,0,1-1.84-2.107,2.074,2.074,0,0,1,1.946-2.3,1.438,1.438,0,0,1,1.348.751h.018l.036-.653h.687c-.018.313-.035.661-.035,1.188Zm-.777-1.991a1.149,1.149,0,0,0-1.143-1.187c-.75,0-1.286.634-1.286,1.634,0,.848.428,1.554,1.277,1.554a1.149,1.149,0,0,0,1.09-.8,1.362,1.362,0,0,0,.063-.421Z" transform="translate(-84.081 -44.176)" fill="#fff"/>
    <path id="패스_631" data-name="패스 631" d="M222.94,114.052c0-.509-.009-.947-.036-1.348h.688l.027.849h.035a1.3,1.3,0,0,1,1.2-.947.859.859,0,0,1,.223.027v.741a1.161,1.161,0,0,0-.268-.027,1.1,1.1,0,0,0-1.054,1.009,2.24,2.24,0,0,0-.036.366v2.3h-.777Z" transform="translate(-87.446 -44.176)" fill="#fff"/>
    <path id="패스_632" data-name="패스 632" d="M230.51,115.991a6.1,6.1,0,0,0,.071,1.036h-.714l-.063-.545h-.027a1.61,1.61,0,0,1-1.322.644,1.232,1.232,0,0,1-1.322-1.242c0-1.045.929-1.616,2.6-1.607v-.09a.891.891,0,0,0-.983-1,2.157,2.157,0,0,0-1.125.321l-.178-.518a2.686,2.686,0,0,1,1.42-.383c1.322,0,1.643.9,1.643,1.768Zm-.759-1.17c-.857-.018-1.83.134-1.83.974a.7.7,0,0,0,.741.749,1.074,1.074,0,0,0,1.045-.723.8.8,0,0,0,.045-.25Z" transform="translate(-89.105 -44.176)" fill="#fff"/>
    <path id="패스_633" data-name="패스 633" d="M235.343,111.063V112.1h1.125v.6h-1.125v2.331c0,.535.151.839.589.839a1.463,1.463,0,0,0,.455-.053l.036.589a1.891,1.891,0,0,1-.7.117,1.094,1.094,0,0,1-.848-.34,1.6,1.6,0,0,1-.3-1.125V112.7h-.67v-.6h.67V111.3Z" transform="translate(-91.761 -43.57)" fill="#fff"/>
    <path id="패스_634" data-name="패스 634" d="M240.387,110.452a.486.486,0,0,1-.973,0,.479.479,0,0,1,.491-.491.466.466,0,0,1,.482.491m-.875,1.214h.786v4.322h-.786Z" transform="translate(-93.923 -43.138)" fill="#fff"/>
    <path id="패스_635" data-name="패스 635" d="M246.722,114.83a2.113,2.113,0,0,1-2.152,2.3A2.055,2.055,0,0,1,242.5,114.9a2.11,2.11,0,0,1,2.143-2.295,2.047,2.047,0,0,1,2.081,2.223m-3.429.045c0,.947.544,1.66,1.313,1.66.751,0,1.313-.7,1.313-1.678,0-.732-.366-1.661-1.295-1.661s-1.33.857-1.33,1.679" transform="translate(-95.132 -44.176)" fill="#fff"/>
    <path id="패스_636" data-name="패스 636" d="M251.053,113.874c0-.446-.009-.812-.036-1.17h.7l.045.715h.018a1.59,1.59,0,0,1,1.429-.812c.6,0,1.527.357,1.527,1.839v2.581h-.786v-2.491c0-.7-.259-1.277-1-1.277a1.152,1.152,0,0,0-1.107,1.17v2.6h-.786Z" transform="translate(-98.474 -44.176)" fill="#fff"/>
    <path id="패스_637" data-name="패스 637" d="M262.319,113.874c0-.446-.009-.812-.036-1.17h.688l.035.7h.027a1.49,1.49,0,0,1,1.358-.795,1.278,1.278,0,0,1,1.223.866h.018a1.779,1.779,0,0,1,.482-.563,1.475,1.475,0,0,1,.955-.3c.572,0,1.42.375,1.42,1.875v2.544h-.768v-2.447c0-.83-.3-1.33-.938-1.33a1.017,1.017,0,0,0-.929.715,1.283,1.283,0,0,0-.063.393v2.67h-.768v-2.589c0-.687-.3-1.187-.9-1.187a1.172,1.172,0,0,0-1.036,1.169v2.608h-.768Z" transform="translate(-102.894 -44.176)" fill="#fff"/>
    <path id="패스_638" data-name="패스 638" d="M278.3,114.83a2.113,2.113,0,0,1-2.152,2.3,2.055,2.055,0,0,1-2.072-2.224,2.11,2.11,0,0,1,2.143-2.295,2.047,2.047,0,0,1,2.081,2.223m-3.429.045c0,.947.545,1.66,1.313,1.66.75,0,1.313-.7,1.313-1.678,0-.732-.366-1.661-1.295-1.661s-1.33.857-1.33,1.679" transform="translate(-107.521 -44.176)" fill="#fff"/>
    <path id="패스_639" data-name="패스 639" d="M282.511,112.767l.848,2.429a11.154,11.154,0,0,1,.348,1.107h.027c.1-.357.223-.714.366-1.107l.839-2.429h.822l-1.7,4.322h-.751l-1.643-4.322Z" transform="translate(-110.5 -44.239)" fill="#fff"/>
    <path id="패스_640" data-name="패스 640" d="M289.707,115.008a1.385,1.385,0,0,0,1.483,1.5,2.837,2.837,0,0,0,1.2-.224l.134.563a3.464,3.464,0,0,1-1.437.277,2.014,2.014,0,0,1-2.125-2.188,2.1,2.1,0,0,1,2.027-2.331,1.831,1.831,0,0,1,1.786,2.035,3.057,3.057,0,0,1-.027.366Zm2.3-.563a1.118,1.118,0,0,0-1.09-1.276,1.3,1.3,0,0,0-1.205,1.276Z" transform="translate(-113.359 -44.176)" fill="#fff"/>
    <path id="패스_641" data-name="패스 641" d="M296.807,113.874c0-.446-.009-.812-.036-1.17h.688l.035.7h.027a1.49,1.49,0,0,1,1.358-.795,1.278,1.278,0,0,1,1.223.866h.018a1.778,1.778,0,0,1,.482-.563,1.475,1.475,0,0,1,.955-.3c.572,0,1.42.375,1.42,1.875v2.544h-.768v-2.447c0-.83-.3-1.33-.938-1.33a1.017,1.017,0,0,0-.929.715,1.285,1.285,0,0,0-.063.393v2.67h-.768v-2.589c0-.687-.3-1.187-.9-1.187a1.172,1.172,0,0,0-1.036,1.169v2.608h-.768Z" transform="translate(-116.424 -44.176)" fill="#fff"/>
    <path id="패스_642" data-name="패스 642" d="M309.317,115.008a1.384,1.384,0,0,0,1.482,1.5,2.838,2.838,0,0,0,1.2-.224l.134.563a3.464,3.464,0,0,1-1.437.277,2.014,2.014,0,0,1-2.125-2.188,2.1,2.1,0,0,1,2.027-2.331,1.831,1.831,0,0,1,1.786,2.035,3.052,3.052,0,0,1-.027.366Zm2.3-.563a1.118,1.118,0,0,0-1.09-1.276,1.3,1.3,0,0,0-1.205,1.276Z" transform="translate(-121.051 -44.176)" fill="#fff"/>
    <path id="패스_643" data-name="패스 643" d="M316.417,113.874c0-.446-.009-.812-.036-1.17h.7l.045.715h.018a1.59,1.59,0,0,1,1.429-.812c.6,0,1.527.357,1.527,1.839v2.581h-.786v-2.491c0-.7-.259-1.277-1-1.277a1.152,1.152,0,0,0-1.107,1.17v2.6h-.786Z" transform="translate(-124.117 -44.176)" fill="#fff"/>
    <path id="패스_644" data-name="패스 644" d="M325.163,111.063V112.1h1.125v.6h-1.125v2.331c0,.535.151.839.589.839a1.463,1.463,0,0,0,.455-.053l.036.589a1.891,1.891,0,0,1-.7.117,1.094,1.094,0,0,1-.848-.34,1.6,1.6,0,0,1-.3-1.125V112.7h-.67v-.6h.67V111.3Z" transform="translate(-126.998 -43.57)" fill="#fff"/>
    <path id="패스_645" data-name="패스 645" d="M192.491,43.334h-2.584V78.408a3.628,3.628,0,0,0,2.261-.459,2.917,2.917,0,0,0,1.537-2.7V44.26c0-.733-.669-.934-1.214-.926" transform="translate(-74.501 -17)" fill="#fff"/>
    <path id="패스_646" data-name="패스 646" d="M167.188,43.333h-2.583V54.365h-4.026a9.356,9.356,0,0,0-2.887-6.022,8.779,8.779,0,0,0-12.135.437,9.889,9.889,0,0,0-2.526,7.1,9.88,9.88,0,0,0,2.526,7.1,8.777,8.777,0,0,0,12.135.437,9.355,9.355,0,0,0,2.887-6.022h4.026V77.646a3.586,3.586,0,0,0,2.261-.454,2.959,2.959,0,0,0,1.537-2.58V44.259c0-.733-.507-.952-1.215-.926M155.433,60.8a4.473,4.473,0,0,1-7.179,0,7.733,7.733,0,0,1-1.424-4.918,7.735,7.735,0,0,1,1.424-4.919,4.473,4.473,0,0,1,7.179,0,7.735,7.735,0,0,1,1.424,4.919,7.733,7.733,0,0,1-1.424,4.918" transform="translate(-56.112 -16.999)" fill="#fff"/>
    <path id="패스_647" data-name="패스 647" d="M218.524,51.965v6.1q0,2.21,2.317,2.207h19.026a3.06,3.06,0,0,0,2.339-1.35,2.1,2.1,0,0,0,.286-1.692H223.12a1.225,1.225,0,0,1-.665-.112c-.088-.078-.133-.291-.133-.644V49.9h16.995a2.559,2.559,0,0,0,1.75-1.35,2.094,2.094,0,0,0,.284-1.692H218.524v5.106Z" transform="translate(-85.727 -18.383)" fill="#fff"/>
    <path id="패스_648" data-name="패스 648" d="M209.279,76.615a2.042,2.042,0,0,0,.286,1.686,2.892,2.892,0,0,0,2.367,1.35h6.2V91.465a3.769,3.769,0,0,0,2.261-.42,2.558,2.558,0,0,0,1.539-2.142V79.651h9.04V91.465a3.766,3.766,0,0,0,2.259-.42,2.634,2.634,0,0,0,1.539-2.277V79.651h6.674a3.167,3.167,0,0,0,1.891-1.35,2.084,2.084,0,0,0,.284-1.686Z" transform="translate(-82.066 -30.056)" fill="#fff"/>
    <path id="패스_649" data-name="패스 649" d="M294.745,59.906V49.274h2.468a2.837,2.837,0,0,0,1.459-.991,3.388,3.388,0,0,0,.544-2.051H277.225a3.139,3.139,0,0,0,1.984,3.042h2.584V59.906h-5.137a2.676,2.676,0,0,0,2.62,3.042h13.683a38.7,38.7,0,0,0,7.691-.813,2.3,2.3,0,0,0,1.858-2.252V59.1a63.583,63.583,0,0,1-7.763.8m-3.8,0h-5.355V49.274h5.355Z" transform="translate(-108.513 -18.137)" fill="#fff"/>
    <path id="패스_650" data-name="패스 650" d="M324.1,43.35h-2.584V63.565a4.784,4.784,0,0,0,2.3-.213,2.427,2.427,0,0,0,1.5-2.236V44.469A1.044,1.044,0,0,0,324.1,43.35" transform="translate(-126.131 -17.006)" fill="#fff"/>
    <path id="패스_651" data-name="패스 651" d="M313.215,80.615H294.641V90.866c0,1.468.772,2.207,2.318,2.207h15.5c1.545,0,2.318-.74,2.318-2.207V82.055c0-.958-.52-1.44-1.558-1.44m-2.242,8.66c0,.353-.043.566-.133.644a1.224,1.224,0,0,1-.664.112H299.237a1.227,1.227,0,0,1-.665-.112c-.088-.078-.133-.291-.133-.644V83.651h11.737a1.23,1.23,0,0,1,.664.112c.09.079.133.292.133.65Z" transform="translate(-115.588 -31.625)" fill="#fff"/>
    <path id="패스_652" data-name="패스 652" d="M0,43.1,78.2,97.218S52.684,72.4,51.89,68.947s3.18-8.731,10.985-9.453S78.2,62.818,78.2,62.818,64.537,51.833,51.456,50.532,34.4,52.556,34.4,52.556,8.889,41.224,0,43.1" transform="translate(0 -16.824)" fill="#fff"/>
    <path id="패스_653" data-name="패스 653" d="M52.33,28.649s5.782-7.878,12-11.708c0,0-9.4-3.4-16.044-2.6,0,0,13.37-8.158,24.427-5.6A28.214,28.214,0,0,1,93.09,0s-6.5,8.569-6.5,9.755c0,0,10.551.536,18.212,7.907,0,0-18.79-.434-20.091,1.012,0,0,7.66,7.444,7.8,15.032,0,0-10.045-10.415-18.79-10.7S52.33,28.649,52.33,28.649" transform="translate(-18.942 0)" fill="#fff"/>
    <path id="패스_654" data-name="패스 654" d="M364.865,76.508a20.14,20.14,0,0,1-8.59,1.894q-6.927,0-10.969-4.134t-4.041-12.031a21.133,21.133,0,0,1,1.062-6.974,13.49,13.49,0,0,1,3.049-5.08,13.163,13.163,0,0,1,4.733-3.094,16.987,16.987,0,0,1,6.166-1.062,19.084,19.084,0,0,1,4.688.554,22.682,22.682,0,0,1,3.9,1.339l-1.108,3.094a20.28,20.28,0,0,0-3.694-1.293,15.413,15.413,0,0,0-3.649-.462,14.074,14.074,0,0,0-4.479.693,9.22,9.22,0,0,0-3.649,2.263,10.222,10.222,0,0,0-2.448,4,18.133,18.133,0,0,0-.878,6.027,17.574,17.574,0,0,0,.924,6.12,10.663,10.663,0,0,0,2.493,4A9.029,9.029,0,0,0,352,74.522a14.139,14.139,0,0,0,4.272.647,16.824,16.824,0,0,0,3.765-.439,17.25,17.25,0,0,0,3.717-1.316Z" transform="translate(-133.879 -18.056)" fill="#fff"/>
    <path id="패스_655" data-name="패스 655" d="M409.908,78.188H406.26l-2.817-7.805H388.617L385.8,78.188h-3.649L393.6,47.013h4.8Zm-7.574-10.946-6.327-17.181-6.189,17.181Z" transform="translate(-149.919 -18.443)" fill="#fff"/>
    <path id="패스_656" data-name="패스 656" d="M435.516,47.014,446.6,69.6l10.946-22.584H461.1V78.189h-3.556V54.865l-9.56,19.675h-2.864l-9.56-19.629V78.189h-3.556V47.014Z" transform="translate(-169.477 -18.444)" fill="#fff"/>
    <path id="패스_657" data-name="패스 657" d="M492.228,65.627V78.189h-3.6V51.817a4.906,4.906,0,0,1,1.2-3.579,4.77,4.77,0,0,1,3.556-1.224h5.866q5.357,0,7.991,2.286t2.632,7.043q0,4.849-2.632,7.066t-8.083,2.217Zm1.939-15.472a2.161,2.161,0,0,0-1.5.416,1.773,1.773,0,0,0-.438,1.339V62.486h6.6a10.559,10.559,0,0,0,5.588-1.178q1.847-1.178,1.847-4.965,0-3.6-1.847-4.9a9.6,9.6,0,0,0-5.5-1.293Z" transform="translate(-191.689 -18.444)" fill="#fff"/>
    <path id="패스_658" data-name="패스 658" d="M533.647,47.014V67.151q0,4.2,1.616,6.281t5.912,2.078q4.3,0,5.934-2.1t1.64-6.258V47.014h3.6V67.2q0,6.051-2.91,8.821t-8.267,2.771a14.357,14.357,0,0,1-5.288-.854,8.341,8.341,0,0,1-3.441-2.425,9.1,9.1,0,0,1-1.847-3.626,17.985,17.985,0,0,1-.554-4.6V47.014Z" transform="translate(-207.938 -18.444)" fill="#fff"/>
    <path id="패스_659" data-name="패스 659" d="M589.926,73.529a5.563,5.563,0,0,0,1.756-4.18,4.963,4.963,0,0,0-1.155-3.487,8.812,8.812,0,0,0-3.094-1.917l-6.6-2.494a11.037,11.037,0,0,1-4.572-2.933,6.473,6.473,0,0,1-1.524-4.364,7.023,7.023,0,0,1,2.863-6.027,12.767,12.767,0,0,1,7.713-2.1,17.944,17.944,0,0,1,4.411.554,27.508,27.508,0,0,1,4.55,1.616l-1.016,2.956q-1.987-.785-3.926-1.339a14.555,14.555,0,0,0-4.019-.554q-3.834,0-5.311,1.409a4.42,4.42,0,0,0-1.477,3.3,3.6,3.6,0,0,0,1.039,2.771,8.995,8.995,0,0,0,3.071,1.709l6.42,2.448a22.589,22.589,0,0,1,2.516,1.224,7.01,7.01,0,0,1,3.395,4.018,9.186,9.186,0,0,1,.508,3.21,8.67,8.67,0,0,1-2.633,6.489Q590.2,78.4,584.984,78.4a19.571,19.571,0,0,1-10.068-2.725l1.571-3.187q1.153.647,2.124,1.108a18.868,18.868,0,0,0,1.894.785,11.017,11.017,0,0,0,2.01.554,13.972,13.972,0,0,0,2.424.185,6.621,6.621,0,0,0,4.988-1.593" transform="translate(-225.468 -18.056)" fill="#fff"/>
  </g>
</svg>
