<svg xmlns="http://www.w3.org/2000/svg" width="17.01" height="16.242" viewBox="0 0 17.01 16.242">
  <g id="찜별" transform="translate(0.505 0.5)">
    <path id="찜별-2" data-name="찜별" d="M1994.725,506.714a.047.047,0,0,0-.043.027l-2.309,4.728a.507.507,0,0,1-.38.279l-5.2.778a.047.047,0,0,0-.039.033.048.048,0,0,0,.012.049l3.783,3.657a.507.507,0,0,1,.147.448l-.868,5.189a.048.048,0,0,0,.019.047.047.047,0,0,0,.028.009.048.048,0,0,0,.022-.006l4.647-2.468a.506.506,0,0,1,.471,0l4.667,2.429a.047.047,0,0,0,.05,0,.048.048,0,0,0,.019-.047l-.911-5.182a.505.505,0,0,1,.144-.449l3.752-3.688a.047.047,0,0,0,.012-.049h0a.048.048,0,0,0-.039-.032l-5.21-.735a.507.507,0,0,1-.383-.275l-2.348-4.708A.048.048,0,0,0,1994.725,506.714Z" transform="translate(-1986.748 -506.714)" fill="none" stroke="#fff" stroke-width="1"/>
  </g>
</svg>
