<svg xmlns="http://www.w3.org/2000/svg" xmlns:xlink="http://www.w3.org/1999/xlink" width="393.426" height="428.916" viewBox="0 0 393.426 428.916">
  <defs>
    <clipPath id="clip-path">
      <rect id="사각형_87" data-name="사각형 87" width="393.426" height="428.916" fill="#5a5a5a"/>
    </clipPath>
  </defs>
  <g id="에듀핌_심볼" data-name="에듀핌 심볼" opacity="0.25">
    <g id="그룹_88" data-name="그룹 88" clip-path="url(#clip-path)">
      <path id="패스_565" data-name="패스 565" d="M0,44,358.322,332.756s-116.9-132.4-120.544-150.833,14.572-46.581,50.336-50.436,70.208,17.738,70.208,17.738-62.589-58.609-122.53-65.547-78.156,10.8-78.156,10.8S40.735,34.014,0,44" transform="translate(0 96.16)" fill="#5a5a5a"/>
      <path id="패스_566" data-name="패스 566" d="M66.829,152.845S93.323,110.817,121.8,90.381c0,0-43.052-18.121-73.519-13.88,0,0,61.266-43.526,111.934-29.861,0,0,34.773-47.177,93.391-46.636,0,0-29.8,45.718-29.8,52.047,0,0,48.348,2.86,83.452,42.187,0,0-86.1-2.315-92.062,5.4,0,0,35.1,39.714,35.764,80.2,0,0-46.031-55.565-86.1-57.085s-98.024,30.094-98.024,30.094" transform="translate(86.171 0.001)" fill="#5a5a5a"/>
    </g>
  </g>
</svg>
