<svg xmlns="http://www.w3.org/2000/svg" width="36" height="35.997" viewBox="0 0 36 35.997">
  <g id="재생_btn" data-name="재생 btn" transform="translate(-1431.088 -761.604)">
    <path id="패스_674" data-name="패스 674" d="M1449.086,761.6a18,18,0,1,0,18,18A18.02,18.02,0,0,0,1449.086,761.6Zm0,33.228a15.23,15.23,0,1,1,15.232-15.23A15.248,15.248,0,0,1,1449.086,794.832Z" transform="translate(0 0)" fill="#ececec"/>
    <path id="패스_675" data-name="패스 675" d="M1443.436,768.76a1.384,1.384,0,0,0-2.3,1.04v14.371a1.39,1.39,0,0,0,.814,1.263,1.41,1.41,0,0,0,.571.122,1.382,1.382,0,0,0,.915-.345l8.174-7.187a1.384,1.384,0,0,0,0-2.08Z" transform="translate(3.864 2.619)" fill="#bc00ff"/>
  </g>
</svg>
