<svg id="구성_요소_5_3" data-name="구성 요소 5 – 3" xmlns="http://www.w3.org/2000/svg" xmlns:xlink="http://www.w3.org/1999/xlink" width="42" height="42" viewBox="0 0 42 42">
  <defs>
    <clipPath id="clip-path">
      <rect id="사각형_73" data-name="사각형 73" width="42" height="42" fill="none"/>
    </clipPath>
  </defs>
  <g id="그룹_76" data-name="그룹 76" clip-path="url(#clip-path)">
    <path id="패스_535" data-name="패스 535" d="M42,21A21,21,0,1,1,21,0,21,21,0,0,1,42,21" fill="#fff"/>
    <path id="패스_536" data-name="패스 536" d="M12.149,18.87a2.592,2.592,0,0,0-1.661.771V16.547H8.541V24.67H10.51v-.636a1.869,1.869,0,0,0,1.639.842A2.878,2.878,0,0,0,14.9,21.838s-.1-2.968-2.746-2.968m-.431,4.286a1.252,1.252,0,1,1,1.252-1.251,1.251,1.251,0,0,1-1.252,1.251"/>
    <path id="패스_537" data-name="패스 537" d="M15.523,16.36v1.884s.887-.04.887,1.619V24.67h1.881V19.417s.081-3.057-2.768-3.057"/>
    <path id="패스_538" data-name="패스 538" d="M22.887,18.9s-3.223,0-3.223,3.007a2.914,2.914,0,0,0,3.223,2.971s3.3-.006,3.3-2.971a2.959,2.959,0,0,0-3.3-3.007m0,4.258a1.252,1.252,0,1,1,1.252-1.251,1.25,1.25,0,0,1-1.252,1.251"/>
    <path id="패스_539" data-name="패스 539" d="M31.564,19.088v.553a2.134,2.134,0,0,0-1.638-.743,2.685,2.685,0,0,0-2.757,2.986s-.03,2.894,2.681,2.894a2.243,2.243,0,0,0,1.714-.744v.456a1.239,1.239,0,0,1-1.243,1.425H29.85v1.727h.76A2.832,2.832,0,0,0,33.46,24.6V19.088ZM30.4,23.156a1.252,1.252,0,1,1,1.251-1.251A1.252,1.252,0,0,1,30.4,23.156"/>
  </g>
</svg>
