<svg id="구성_요소_8_3" data-name="구성 요소 8 – 3" xmlns="http://www.w3.org/2000/svg" xmlns:xlink="http://www.w3.org/1999/xlink" width="42" height="42" viewBox="0 0 42 42">
  <defs>
    <clipPath id="clip-path">
      <rect id="사각형_76" data-name="사각형 76" width="42" height="42" fill="none"/>
    </clipPath>
  </defs>
  <g id="그룹_82" data-name="그룹 82" clip-path="url(#clip-path)">
    <path id="패스_545" data-name="패스 545" d="M42,21A21,21,0,1,1,21,0,21,21,0,0,1,42,21" fill="#fff"/>
    <path id="패스_546" data-name="패스 546" d="M25.228,11H16.772A5.774,5.774,0,0,0,11,16.773v8.456A5.771,5.771,0,0,0,16.772,31h8.456A5.769,5.769,0,0,0,31,25.229V16.773A5.772,5.772,0,0,0,25.228,11m3.931,14.378a3.834,3.834,0,0,1-3.833,3.833H16.672a3.835,3.835,0,0,1-3.833-3.833V16.724a3.833,3.833,0,0,1,3.833-3.832h8.654a3.833,3.833,0,0,1,3.833,3.832Z"/>
    <path id="패스_547" data-name="패스 547" d="M21,15.86a5.19,5.19,0,1,0,5.191,5.191A5.189,5.189,0,0,0,21,15.86m0,8.554a3.365,3.365,0,1,1,3.365-3.363A3.364,3.364,0,0,1,21,24.414"/>
    <path id="패스_548" data-name="패스 548" d="M26.364,14.454a1.209,1.209,0,1,0,1.209,1.209,1.209,1.209,0,0,0-1.209-1.209"/>
  </g>
</svg>
