<svg id="구성_요소_6_3" data-name="구성 요소 6 – 3" xmlns="http://www.w3.org/2000/svg" xmlns:xlink="http://www.w3.org/1999/xlink" width="42" height="42" viewBox="0 0 42 42">
  <defs>
    <clipPath id="clip-path">
      <rect id="사각형_74" data-name="사각형 74" width="42" height="42" fill="none"/>
    </clipPath>
  </defs>
  <g id="그룹_78" data-name="그룹 78" clip-path="url(#clip-path)">
    <path id="패스_540" data-name="패스 540" d="M42,21A21,21,0,1,1,21,0,21,21,0,0,1,42,21" fill="#fff"/>
    <path id="패스_541" data-name="패스 541" d="M9.243,17.1a.719.719,0,0,0-.5.191.66.66,0,0,0-.152.2.622.622,0,0,0-.055.25A.607.607,0,0,0,8.6,18a.68.68,0,0,0,.254.286.753.753,0,0,0,.394.11h1.711V24.2a.705.705,0,0,0,.7.7h.157a.705.705,0,0,0,.7-.7V18.391H14.21a.738.738,0,0,0,.5-.19A.707.707,0,0,0,14.859,18a.61.61,0,0,0,.055-.249.621.621,0,0,0-.055-.249.662.662,0,0,0-.257-.284.741.741,0,0,0-.392-.111Z"/>
    <path id="패스_542" data-name="패스 542" d="M15.639,23.283h3.245l.576,1.263a.693.693,0,0,0,.265.3.7.7,0,0,0,.666.046l.146-.065a.692.692,0,0,0,.3-.265l.2-.322L18.048,17.66a.756.756,0,0,0-.092-.223,1.107,1.107,0,0,0-.272-.277.717.717,0,0,0-.349-.109c-.059-.005-.086-.007-.115-.007a.709.709,0,0,0-.377.108.689.689,0,0,0-.215.215c-.03.04-.044.058-.056.076a.762.762,0,0,0-.086.2l-.021.059L13.643,23.89a.7.7,0,0,0-.062.289.726.726,0,0,0,.107.378.7.7,0,0,0,.3.264l.144.066a.715.715,0,0,0,.668-.046.694.694,0,0,0,.263-.3Zm14.215-1.677,2.207,3.016a.713.713,0,0,0,.255.214.725.725,0,0,0,.728-.062l.127-.094a.7.7,0,0,0,.215-.255.719.719,0,0,0,.073-.313.7.7,0,0,0-.135-.414L30.953,20.46,32.93,18.4a.691.691,0,0,0,.194-.485.713.713,0,0,0-.053-.272.684.684,0,0,0-.161-.236l-.116-.111a.721.721,0,0,0-.757-.14.687.687,0,0,0-.236.162l-2.875,3V17.8a.707.707,0,0,0-.7-.7h-.16a.705.705,0,0,0-.7.7v6.581l.088.159a.817.817,0,0,0,.118.157.707.707,0,0,0,.5.2h.158a.705.705,0,0,0,.7-.7V22.574ZM21.4,24.437l.071.115a.678.678,0,0,0,.237.245.768.768,0,0,0,.32.106c.024,0,.049,0,.074,0h4.1a.74.74,0,0,0,.5-.187.616.616,0,0,0,.133-.171l.195-.362-.28-.314a.714.714,0,0,0-.154-.128.744.744,0,0,0-.391-.108H22.961V17.8a.707.707,0,0,0-.7-.7H22.1a.707.707,0,0,0-.7.7Zm-3.091-2.426H16.22l1.042-2.285Z"/>
  </g>
</svg>
